<svg width="48.000000" height="20.000000" viewBox="0 0 48 20" fill="none" xmlns="http://www.w3.org/2000/svg" xmlns:xlink="http://www.w3.org/1999/xlink">
	<desc>
			Created with Pixso.
	</desc>
	<defs/>
	<path id="Shape" d="M38.3967 16.1628C38.3967 16.3264 38.4109 16.4863 38.4329 16.6455C38.6865 18.5361 40.4084 20 42.4988 20C44.6455 20 46.405 18.4556 46.5828 16.491C46.5925 16.3826 46.6008 16.2732 46.6008 16.1628C46.6008 14.0437 44.7639 12.3252 42.4988 12.3252C40.2332 12.3257 38.3967 14.0437 38.3967 16.1628Z" fill="#242E42" fill-opacity="1.000000" fill-rule="nonzero"/>
	<path id="Shape" d="M4.4812 16.1628C4.4812 16.3264 4.49585 16.4863 4.51733 16.6455C4.771 18.5361 6.49292 20 8.58325 20C10.7305 20 12.49 18.4556 12.6677 16.491C12.678 16.3826 12.6858 16.2732 12.6858 16.1628C12.6858 14.0437 10.8494 12.3252 8.58374 12.3252C6.31812 12.3252 4.4812 14.0437 4.4812 16.1628Z" fill="#242E42" fill-opacity="1.000000" fill-rule="nonzero"/>
	<path id="Shape" d="M3.58472 16.9983L0.296631 17.0459C-0.293213 14.8762 0.092041 13.3994 0.621094 12.2136C1.15015 11.0278 2.49121 9.45874 4.60181 8.74365C6.42871 8.12476 7.49683 7.91284 10.1409 6.54297C12.3743 5.38599 19.741 1.80029 21.8931 1.18774C25.5129 0.158447 29.6355 -0.208984 35.6421 0.113281C39.9058 0.342041 40.9172 0.911133 42.321 1.74756C44.2534 2.89868 46.1609 6.29053 46.3645 7.31812C46.4824 7.91333 46.4177 8.36328 46.3579 8.77759C46.3145 9.07861 46.2739 9.36084 46.3081 9.66602C46.3894 10.3911 47.7729 11.8325 47.9766 13.3174C48.083 14.0979 47.8088 14.8965 47.5249 15.4792C47.1682 13.1802 45.0527 11.407 42.4983 11.407C39.6938 11.407 37.4128 13.5405 37.4128 16.1643C37.4128 16.2722 37.4187 16.3853 37.429 16.502L13.6072 16.8518C13.6218 16.7581 13.6389 16.665 13.6477 16.5698C13.6594 16.4343 13.6687 16.3005 13.6687 16.1638C13.6687 13.541 11.3875 11.4065 8.58276 11.4065C5.77881 11.4065 3.49756 13.5403 3.49756 16.1638C3.49756 16.3501 3.51172 16.5452 3.5415 16.7625C3.55273 16.8423 3.57056 16.9197 3.58472 16.9983ZM17.4189 4.68042L17.0195 5.77368C17.0195 5.77368 17.7573 6.63696 17.1733 7.75928C17.1733 7.75928 24.4324 7.34106 30.5823 6.83008L31.2559 1.48535L30.427 1.48535C24.562 1.48535 22.1492 2.30396 17.4189 4.68042ZM34.0857 6.51416L33.4546 1.5022C36.9514 1.55957 40.5806 1.81714 40.8992 2.96387C41.0881 3.64331 40.1318 5.26514 38.9866 5.74219C38.1021 6.11084 36.73 6.25049 34.0857 6.51416Z" clip-rule="evenodd" fill="#242E42" fill-opacity="1.000000" fill-rule="evenodd"/>
</svg>
