<svg width="17.251457" height="17.387939" viewBox="0 0 17.2515 17.3879" fill="none" xmlns="http://www.w3.org/2000/svg" xmlns:xlink="http://www.w3.org/1999/xlink">
	<desc>
			Created with Pixso.
	</desc>
	<defs/>
	<path id="Vector" d="M17.2515 8.89722C17.2515 13.8577 13.8259 17.3879 8.76713 17.3879C3.91693 17.3879 0 13.5037 0 8.69385C0 3.88428 3.91693 0 8.76713 0C11.1286 0 13.1153 0.858887 14.6461 2.27515L12.2598 4.55029C9.13832 1.56348 3.33363 3.80713 3.33363 8.69385C3.33363 11.7263 5.77641 14.1836 8.76713 14.1836C12.2386 14.1836 13.5396 11.7158 13.7446 10.4363L8.76713 10.4363L8.76713 7.4458L17.1136 7.4458C17.1949 7.89111 17.2515 8.31885 17.2515 8.89722Z" fill="#53D269" fill-opacity="1.000000" fill-rule="nonzero"/>
</svg>
