<svg width="12.000000" height="16.000000" viewBox="0 0 12 16" fill="none" xmlns="http://www.w3.org/2000/svg" xmlns:xlink="http://www.w3.org/1999/xlink">
	<desc>
			Created with Pixso.
	</desc>
	<defs/>
	<path id="Oval" d="M6 16C6.60889 16 9.50781 12.2673 10.2227 11.0784C11.3215 9.25049 12 8.16919 12 6.15161C12 2.75415 9.31372 0 6 0C2.68628 0 0 2.75415 0 6.15161C0 8.17969 0.628662 9.25391 1.72388 11.0784C2.48706 12.3499 5.39111 16 6 16ZM8.99976 6.15161C8.99976 7.85034 7.65649 9.22729 5.99976 9.22729C4.34302 9.22729 2.99976 7.85034 2.99976 6.15161C2.99976 4.45288 4.34302 3.07568 5.99976 3.07568C7.65649 3.07568 8.99976 4.45288 8.99976 6.15161Z" clip-rule="evenodd" fill="#53D269" fill-opacity="0.600000" fill-rule="evenodd"/>
</svg>
