<svg width="135" height="42" viewBox="0 0 135 42" fill="none" xmlns="http://www.w3.org/2000/svg">
<path fill-rule="evenodd" clip-rule="evenodd" d="M18.9136 6.7135C19.052 6.01792 19.1831 5.37094 19.2752 4.94065C19.5831 3.50108 20.5329 1.20807 22.0214 0.24843C22.0214 0.24843 14.347 -0.84457 8.90579 1.55484C3.46443 3.95425 -0.982477 9.04144 0.188725 17.5353H0.190101C0.178501 17.3637 0.169261 17.1932 0.162576 17.0237L0.162182 17.0169C0.155498 16.8491 0.15137 16.6824 0.149207 16.5166L0.149009 16.5058C0.147043 16.3414 0.147633 16.1782 0.150386 16.0158V16.0013C0.153335 15.8423 0.15825 15.6846 0.165327 15.5278L0.166508 15.4996C0.173586 15.3437 0.183024 15.1892 0.194427 15.0354L0.196195 15.0119C0.207795 14.8589 0.221558 14.707 0.23709 14.5561L0.240237 14.5267C0.256162 14.3768 0.274054 14.2277 0.293715 14.0796L0.297647 14.0518C0.317701 13.9042 0.33972 13.7573 0.363903 13.6119L0.368622 13.5829C0.392805 13.4377 0.418955 13.2936 0.44707 13.1506L0.452771 13.1224C0.481082 12.9795 0.511361 12.8373 0.543409 12.6966L0.549699 12.6692C0.582139 12.5283 0.616547 12.3884 0.652723 12.25L0.659604 12.2238C0.69637 12.0846 0.734709 11.9467 0.775014 11.8097L0.781502 11.788C0.822396 11.65 0.865061 11.5131 0.909691 11.3773L0.915392 11.3602C0.960612 11.2236 1.0076 11.088 1.05636 10.9536L1.06187 10.9391C1.11141 10.8031 1.16292 10.6683 1.2164 10.5347L1.21719 10.5329C2.14794 8.20759 3.64335 6.26217 5.53296 4.76665L5.53591 4.7642C5.63913 4.68251 5.74392 4.60225 5.8497 4.52342L5.87801 4.50177C5.97474 4.42989 6.07265 4.35963 6.17115 4.28979C6.19121 4.2757 6.21087 4.261 6.23092 4.24711C6.32156 4.1838 6.41338 4.12192 6.50539 4.06045C6.53449 4.04105 6.563 4.02144 6.59209 4.00224C6.68057 3.94404 6.77042 3.88727 6.86027 3.8309C6.89291 3.81048 6.92495 3.78965 6.95779 3.76963C7.04626 3.7149 7.13591 3.6616 7.22576 3.60871C7.26096 3.58788 7.29596 3.56684 7.33134 3.54642C7.41884 3.49577 7.50731 3.44635 7.59598 3.39734C7.6353 3.37569 7.67443 3.35363 7.71395 3.3324C7.79927 3.28604 7.88558 3.24111 7.9719 3.19659C8.01633 3.17351 8.06076 3.15023 8.10559 3.12756C8.18817 3.0859 8.27114 3.04526 8.3545 3.00502C8.40385 2.98113 8.45319 2.95724 8.50274 2.93375C8.58551 2.89474 8.66908 2.85696 8.75263 2.81918C8.80297 2.79651 8.85349 2.77385 8.90422 2.75159C8.9866 2.71544 9.06976 2.68031 9.15293 2.64559C9.207 2.62272 9.26106 2.60025 9.31533 2.5784C9.39633 2.54552 9.47773 2.51346 9.55932 2.48181C9.61673 2.45975 9.67414 2.43769 9.73194 2.41605C9.81275 2.38582 9.89375 2.35641 9.97515 2.32721C10.0349 2.30597 10.0947 2.28494 10.1547 2.26431C10.2345 2.23694 10.3147 2.21019 10.3949 2.18385C10.4578 2.16322 10.5207 2.143 10.5838 2.12319C10.6625 2.09848 10.7413 2.07438 10.8206 2.0507C10.8866 2.03089 10.9527 2.01169 11.0189 1.99269C11.0976 1.97043 11.1764 1.94858 11.2555 1.92714C11.3217 1.90917 11.3884 1.89181 11.455 1.87465C11.5347 1.85403 11.6147 1.83401 11.6949 1.81461C11.7633 1.79807 11.8321 1.78194 11.9009 1.76621C11.9798 1.74804 12.0586 1.73027 12.1377 1.71311C12.2082 1.698 12.279 1.6835 12.35 1.6692C12.4286 1.65328 12.5075 1.63755 12.5865 1.62264C12.6599 1.60875 12.7338 1.59568 12.8075 1.58282C12.8844 1.56934 12.9613 1.55586 13.0383 1.54341C13.1146 1.53095 13.1911 1.51951 13.2678 1.50807C13.3441 1.49664 13.4201 1.4852 13.4968 1.47479C13.5741 1.46437 13.6515 1.45477 13.729 1.44518C13.8065 1.43558 13.8839 1.42597 13.9618 1.4174C14.0393 1.40882 14.1171 1.40127 14.195 1.39351C14.2722 1.38595 14.3495 1.37819 14.4272 1.37145C14.507 1.36471 14.5872 1.35899 14.6672 1.35328C14.7443 1.34756 14.8214 1.34163 14.8988 1.33714C14.98 1.33224 15.0614 1.32856 15.143 1.32468C15.2191 1.32101 15.2952 1.31712 15.3717 1.31426C15.4566 1.31141 15.5421 1.30957 15.6275 1.30773C15.701 1.3061 15.7745 1.30385 15.8483 1.30303C15.9344 1.30201 16.0207 1.30263 16.107 1.30283C16.1819 1.30283 16.2564 1.30263 16.3315 1.30365C16.4163 1.30487 16.5012 1.30753 16.5863 1.30957C16.6628 1.31161 16.7393 1.31304 16.816 1.3161C16.9023 1.31917 16.989 1.32428 17.0755 1.32877C17.1508 1.33244 17.2263 1.33571 17.3018 1.34041C17.394 1.34612 17.4866 1.35368 17.579 1.36063C17.6492 1.36614 17.719 1.37063 17.7894 1.37655C17.8891 1.38513 17.9893 1.39575 18.0894 1.40596C18.1533 1.4125 18.217 1.41801 18.2811 1.42516C18.3904 1.43721 18.4999 1.4515 18.6094 1.46539C18.6645 1.47254 18.7193 1.47826 18.7746 1.48581C18.9392 1.50807 19.1041 1.53238 19.2695 1.55872C18.5756 2.67623 18.0961 4.72723 17.4424 7.02719C17.0317 8.47268 16.5523 10.0168 15.908 11.4895C15.8872 11.537 15.866 11.5848 15.8445 11.6322L15.8424 11.6367L15.8404 11.641L15.8365 11.65L15.8343 11.6545L15.8323 11.659L15.8302 11.6635L15.8282 11.6677L15.7791 11.7745L16.2342 11.4899C15.2022 15.2857 14.6138 20.213 14.4358 21.8595C16.4119 20.7093 17.406 18.4008 18.0253 16.3085C18.6553 13.8662 19.2852 11.4239 19.9153 8.9816C23.991 13.2198 24.1424 17.8698 22.5007 22.303L22.5013 22.3018C27.3401 13.0622 18.9136 6.7135 18.9136 6.7135ZM5.18103 17.6792L6.28735 17.7111L8.65708 16.2291C8.627 16.2162 8.59672 16.2031 8.56644 16.1898C8.53892 16.1774 8.511 16.1647 8.48328 16.1519L8.43019 16.1267C8.38871 16.1067 8.34703 16.0861 8.30535 16.0644L8.28687 16.0548C8.23771 16.0291 8.18836 16.0026 8.13901 15.9746C3.73615 13.4912 7.30972 7.75402 11.4548 5.51329C12.1217 5.15263 12.8034 4.88265 13.4693 4.73132C13.4693 4.73132 12.4864 4.89408 11.1538 5.52799C9.51489 6.30771 7.34688 7.80017 5.82827 10.5788C5.78659 10.655 5.74628 10.7318 5.70696 10.809L5.69713 10.8284C5.66115 10.8997 5.62635 10.9713 5.59234 11.0432L5.57975 11.07C5.54633 11.1415 5.51389 11.2131 5.48263 11.2852L5.4728 11.3077C5.43996 11.3837 5.40831 11.46 5.37764 11.5366L5.37429 11.5448C5.34284 11.6238 5.31256 11.7033 5.28346 11.7827L5.27776 11.7991C5.25043 11.874 5.22428 11.9496 5.19931 12.0251L5.19086 12.0502C5.16746 12.1215 5.14485 12.193 5.12323 12.2647L5.11182 12.3031C5.09098 12.3733 5.07112 12.4438 5.05205 12.5142L5.04301 12.5471C5.02276 12.6229 5.00369 12.6989 4.9856 12.7748L4.97852 12.8059C4.96161 12.8778 4.94549 12.9496 4.93055 13.0217L4.9215 13.0663C4.90794 13.1326 4.89516 13.1992 4.88317 13.2658L4.87373 13.3193C4.86233 13.384 4.8519 13.449 4.84207 13.5139L4.83382 13.5678C4.82438 13.6342 4.81553 13.7004 4.80727 13.7667L4.7998 13.8307C4.79213 13.8962 4.78506 13.9622 4.77896 14.0277L4.77287 14.0955C4.76795 14.1546 4.76323 14.2134 4.7593 14.2722L4.75439 14.3506C4.75124 14.4055 4.74868 14.4607 4.74632 14.5156C4.74534 14.542 4.74436 14.5685 4.74337 14.5949C4.74161 14.6514 4.74062 14.7078 4.73984 14.7644C4.73925 14.7977 4.73905 14.8309 4.73905 14.864C4.73885 14.9139 4.73925 14.9633 4.74003 15.0127C4.74043 15.0507 4.74121 15.0883 4.74239 15.126C4.74357 15.1716 4.74495 15.2171 4.74692 15.2625C4.74849 15.3005 4.75026 15.3384 4.75222 15.3764C4.75478 15.422 4.75753 15.4675 4.76068 15.513C4.76304 15.548 4.76559 15.5827 4.76834 15.6172C4.77208 15.6625 4.77621 15.7075 4.78053 15.7526C4.78506 15.8002 4.78997 15.8476 4.79528 15.8949C4.79862 15.9264 4.80236 15.9578 4.80629 15.9893C4.81258 16.0406 4.81927 16.0918 4.82634 16.1429L4.83873 16.2291C4.8462 16.2791 4.85407 16.3289 4.86232 16.3787C4.86862 16.4157 4.87491 16.4527 4.88139 16.4894C4.89005 16.537 4.89889 16.5844 4.90833 16.632C4.91462 16.664 4.92111 16.6963 4.9278 16.7284C4.9392 16.7833 4.95119 16.8382 4.96358 16.8932L4.97931 16.9612C4.99228 17.0165 5.00585 17.0715 5.02001 17.1264L5.03436 17.1818C5.0493 17.2381 5.06444 17.2943 5.08036 17.35L5.09924 17.4148C5.11477 17.4683 5.1307 17.5214 5.14741 17.5743L5.1476 17.5751C5.15861 17.6098 5.16962 17.6445 5.18103 17.6792Z" fill="#53D269"/>
<path fill-rule="evenodd" clip-rule="evenodd" d="M16.9386 33.3129C20.7074 33.9766 23.2975 35.3539 23.2975 36.9456C23.2975 39.1847 18.1709 41 11.847 41C5.52283 41 0.39624 39.1847 0.39624 36.9456C0.39624 34.7996 5.10346 33.0435 11.0607 32.9005L11.1344 34.082C6.18501 34.1912 2.28271 35.4313 2.28271 36.9456C2.28271 38.5316 6.56466 39.8169 11.847 39.8169C17.1291 39.8169 21.4112 38.5316 21.4112 36.9456C21.4112 35.7974 19.1673 34.8072 15.9246 34.3474L16.9386 33.3129Z" fill="#53D269"/>
<path fill-rule="evenodd" clip-rule="evenodd" d="M11.1518 5.52893C11.2523 5.5226 11.3525 5.5177 11.453 5.51423C7.30887 7.75558 3.73667 13.4916 8.13895 15.9745C11.4943 17.8672 14.4525 14.8155 15.908 11.4894C16.5523 10.0167 17.0316 8.47301 17.4423 7.02773C18.3255 7.54482 19.1567 8.19384 19.9088 8.97499L19.9151 8.98173L18.0253 16.3084C17.1442 19.2846 15.5049 22.6983 11.3598 22.5932C5.76352 22.4512 3.07508 15.6163 5.8282 10.5787C7.34622 7.80132 9.51305 6.30906 11.1518 5.52893ZM17.6692 30.4261C15.7161 32.905 13.5921 35.1322 11.8468 36.9453C8.54947 33.5203 3.90182 28.6179 1.60779 23.3312C2.35549 24.9213 3.37786 26.3464 4.59192 27.5374C7.41995 30.3126 11.2865 31.8197 15.1375 31.1942C15.6258 31.115 16.092 31.0024 16.5367 30.8619C16.9309 30.7374 17.3084 30.5909 17.6692 30.4261ZM0.465685 19.7488C0.388614 19.3546 0.328255 18.9596 0.286377 18.5645C0.33376 18.9541 0.393333 19.3489 0.465685 19.7488Z" fill="#53D269"/>
<path fill-rule="evenodd" clip-rule="evenodd" d="M11.8469 35.7766C13.6701 35.7766 15.148 36.2999 15.148 36.9456C15.148 37.5912 13.6701 38.1144 11.8469 38.1144C10.0238 38.1144 8.54565 37.5912 8.54565 36.9456C8.54565 36.2999 10.0238 35.7766 11.8469 35.7766Z" fill="#53D269"/>
<path fill-rule="evenodd" clip-rule="evenodd" d="M0.16626 15.4995C0.16626 15.4995 1.20652 2.45889 16.8578 3.13344C16.8578 3.13344 16.8578 5.69684 16.1433 8.49633C15.429 11.2958 12.0519 15.7144 9.03196 13.3871C6.01205 11.0597 9.00936 6.26152 13.4692 4.73128C12.8035 4.88261 12.1217 5.15259 11.4548 5.51325C11.4542 5.51345 11.4536 5.51386 11.453 5.51427C7.30888 7.75561 3.73668 13.4916 8.13896 15.9746C8.18831 16.0025 8.23766 16.0293 8.28681 16.0548L8.3053 16.0644C8.34717 16.0861 8.38866 16.1067 8.43014 16.1267L8.48303 16.1522C8.54103 16.1794 8.59864 16.2051 8.65624 16.2292C11.7015 17.5107 14.3622 14.8154 15.779 11.7745L15.8282 11.6677L15.8301 11.6634L15.8323 11.6589L15.8343 11.6544L15.8364 11.6499L15.8403 11.6411L15.8425 11.6367L15.8445 11.6322C15.8659 11.5848 15.8871 11.537 15.908 11.4894C16.5523 10.017 17.0316 8.47304 17.4423 7.02715C18.0958 4.72699 18.5756 2.67639 19.2694 1.55868C19.1041 1.53234 18.9391 1.50803 18.7745 1.48577C18.7195 1.47821 18.6644 1.4725 18.6094 1.46535C18.4999 1.45146 18.3904 1.43717 18.2811 1.42512C18.2172 1.41797 18.1533 1.41245 18.0894 1.40592C17.9893 1.39571 17.889 1.38509 17.7893 1.37651C17.7189 1.37059 17.6492 1.3661 17.579 1.36058C17.4866 1.35364 17.394 1.34608 17.3017 1.34036C17.2262 1.33567 17.1507 1.3324 17.0754 1.32873C16.9889 1.32423 16.9022 1.31933 16.8159 1.31606C16.7392 1.313 16.6628 1.31157 16.5863 1.30973C16.5012 1.30748 16.4162 1.30483 16.3315 1.30361C16.2564 1.30258 16.1819 1.30279 16.1069 1.30279C16.0206 1.30258 15.9343 1.30197 15.8482 1.30299C15.7745 1.30381 15.7011 1.30606 15.6274 1.30769C15.5421 1.30953 15.4566 1.31116 15.3716 1.31422C15.2951 1.31708 15.2191 1.32097 15.1428 1.32464C15.0614 1.32852 14.98 1.3322 14.8988 1.3371C14.8213 1.34179 14.7442 1.34751 14.6672 1.35323C14.5872 1.35895 14.5069 1.36467 14.4271 1.37141C14.3495 1.37814 14.2722 1.38591 14.1949 1.39346C14.1171 1.40122 14.0392 1.40857 13.9617 1.41736C13.8839 1.42593 13.8064 1.43553 13.729 1.44513C13.6515 1.45473 13.574 1.46433 13.4968 1.47474C13.4201 1.48516 13.344 1.49659 13.2677 1.50803C13.191 1.51947 13.1146 1.53091 13.0383 1.54336C12.9612 1.55582 12.8843 1.5693 12.8075 1.58278C12.7337 1.59564 12.6598 1.60871 12.5865 1.6226C12.5074 1.63751 12.4286 1.65323 12.3499 1.66916C12.279 1.68346 12.2082 1.69796 12.1376 1.71307C12.0586 1.73023 11.9797 1.74799 11.9009 1.76617C11.8321 1.78189 11.7633 1.79803 11.6948 1.81457C11.6146 1.83377 11.5346 1.85419 11.455 1.87461C11.3883 1.89177 11.3217 1.90913 11.2554 1.9271C11.1764 1.94854 11.0975 1.97039 11.0189 1.99286C10.9526 2.01164 10.8866 2.03084 10.8205 2.05065C10.7413 2.07414 10.6624 2.09844 10.5838 2.12315C10.5207 2.14296 10.4578 2.16318 10.3949 2.1838C10.3144 2.21015 10.2344 2.2369 10.1546 2.26427C10.0946 2.28469 10.0349 2.30593 9.9751 2.32717C9.8939 2.35637 9.8127 2.38578 9.73189 2.416C9.67409 2.43765 9.61668 2.45971 9.55927 2.48197C9.47768 2.51342 9.39628 2.54548 9.31528 2.57816C9.26101 2.60021 9.20695 2.62288 9.15288 2.64555C9.06971 2.68027 8.98674 2.7154 8.90417 2.75154C8.85344 2.7738 8.80292 2.79647 8.75258 2.81914C8.66902 2.85692 8.58546 2.8947 8.50269 2.93371C8.45314 2.95719 8.4038 2.98109 8.35445 3.00498C8.27109 3.04521 8.18792 3.08585 8.10554 3.12752C8.06071 3.15018 8.01628 3.17347 7.97184 3.19655C7.88553 3.24107 7.79922 3.286 7.71389 3.33215C7.67457 3.35359 7.63525 3.37565 7.59593 3.39729C7.50726 3.44631 7.41898 3.49573 7.33129 3.54638C7.2959 3.5668 7.26091 3.58783 7.22571 3.60866C7.13586 3.66156 7.04621 3.71486 6.95754 3.76959C6.9249 3.78961 6.89286 3.81044 6.86022 3.83086C6.77037 3.88723 6.68071 3.944 6.59224 4.0022C6.56294 4.0214 6.53444 4.04101 6.50553 4.06041C6.41333 4.12188 6.32151 4.18376 6.23087 4.24707C6.21082 4.26095 6.19116 4.27565 6.1711 4.28975C6.0726 4.35959 5.97469 4.42984 5.87796 4.50173L5.84965 4.52338C5.74387 4.60221 5.63908 4.68247 5.53586 4.76416L5.53291 4.76661C3.64329 6.26213 2.14788 8.20755 1.21714 10.5328L1.21635 10.5347C1.16287 10.6682 1.11136 10.803 1.06182 10.939L1.05651 10.9535C1.00755 11.0879 0.960561 11.2233 0.915341 11.3601L0.909641 11.3773C0.86501 11.5131 0.822346 11.6499 0.781451 11.788L0.774963 11.8096C0.734658 11.9467 0.696319 12.0845 0.659553 12.2238L0.652672 12.2497C0.616496 12.3886 0.582088 12.5283 0.549648 12.6692L0.543358 12.6966C0.511311 12.8373 0.481032 12.9794 0.45272 13.1224L0.447019 13.1504C0.418904 13.2935 0.392754 13.4377 0.368572 13.5829L0.363852 13.6119C0.339669 13.7575 0.317649 13.9041 0.297399 14.0518L0.29386 14.0796C0.274002 14.2276 0.256111 14.3767 0.240186 14.5266L0.237039 14.556C0.22131 14.7069 0.207745 14.8589 0.196145 15.0118L0.194376 15.0353C0.182973 15.1891 0.173534 15.3437 0.16626 15.4995Z" fill="#E3EDF6"/>
<path fill-rule="evenodd" clip-rule="evenodd" d="M22.5054 22.2895C22.504 22.2936 22.5025 22.2977 22.5011 22.3016C22.5027 22.2977 22.504 22.2936 22.5054 22.2895ZM19.9151 8.98178L18.0253 16.3085C17.406 18.4007 16.4117 20.7093 14.4358 21.8594C13.8011 22.2289 13.0654 22.4786 12.208 22.5636C12.208 22.5636 16.6628 22.4268 18.2213 18.8851C19.78 15.3435 19.9098 13.1175 21.3712 13.0836C22.8306 13.0501 23.8227 18.5237 22.5056 22.2895C24.1422 17.8604 23.9869 13.2157 19.9151 8.98178Z" fill="#E3EDF6"/>
<path fill-rule="evenodd" clip-rule="evenodd" d="M8.5457 36.9456C8.5457 36.4311 9.48333 35.9945 10.7861 35.8381C10.2861 35.3124 9.76665 34.7594 9.23836 34.182C5.22399 34.5231 2.28271 35.631 2.28271 36.9456C2.28271 38.2126 5.01559 39.2878 8.80779 39.6691C5.71158 39.2386 1.85765 37.4712 3.73841 36.2724C5.88165 34.9066 8.366 34.9907 8.366 34.9907L8.59328 35.6316C7.96 35.682 5.26488 37.1326 8.90176 37.9589C12.5386 38.7854 14.5089 37.6368 14.5089 37.6368C13.908 37.9264 12.9393 38.1143 11.847 38.1143C10.0236 38.1143 8.5457 37.5911 8.5457 36.9456Z" fill="#E3EDF6"/>
<path fill-rule="evenodd" clip-rule="evenodd" d="M11.8898 31.2327C12.9578 31.3777 14.0484 31.3713 15.1376 31.1943C15.626 31.115 16.0921 31.0025 16.5368 30.862C16.9311 30.7374 17.3085 30.591 17.6693 30.4262C17.3388 30.4756 17.0124 30.5138 16.6904 30.5418C7.28972 31.3571 1.60791 23.3313 1.60791 23.3313C2.35562 24.9216 3.37798 26.3462 4.59205 27.5375C6.62007 29.5276 9.18229 30.8659 11.8898 31.2327Z" fill="#E3EDF6"/>
<path d="M37.384 24.312C35.016 24.312 33.024 23.544 31.408 22.008C29.792 20.472 28.984 18.472 28.984 16.008C28.984 13.544 29.792 11.552 31.408 10.032C33.024 8.496 35.016 7.728 37.384 7.728C40.136 7.728 42.288 8.84 43.84 11.064L41.536 12.36C41.088 11.736 40.496 11.224 39.76 10.824C39.04 10.424 38.248 10.224 37.384 10.224C35.8 10.224 34.48 10.768 33.424 11.856C32.384 12.944 31.864 14.328 31.864 16.008C31.864 17.688 32.384 19.08 33.424 20.184C34.48 21.272 35.8 21.816 37.384 21.816C38.136 21.816 38.848 21.672 39.52 21.384C40.208 21.096 40.76 20.76 41.176 20.376V17.88H36.4V15.408H43.984V21.408C42.24 23.344 40.04 24.312 37.384 24.312ZM52.0671 24.288C50.2751 24.288 48.8351 23.704 47.7471 22.536C46.6591 21.352 46.1151 19.904 46.1151 18.192C46.1151 16.48 46.6591 15.04 47.7471 13.872C48.8351 12.704 50.2751 12.12 52.0671 12.12C53.8751 12.12 55.3231 12.704 56.4111 13.872C57.4991 15.04 58.0431 16.48 58.0431 18.192C58.0431 19.92 57.4991 21.368 56.4111 22.536C55.3231 23.704 53.8751 24.288 52.0671 24.288ZM52.0671 22.056C53.1071 22.056 53.9231 21.688 54.5151 20.952C55.1231 20.2 55.4271 19.28 55.4271 18.192C55.4271 17.12 55.1231 16.216 54.5151 15.48C53.9231 14.728 53.1071 14.352 52.0671 14.352C51.0431 14.352 50.2271 14.728 49.6191 15.48C49.0271 16.216 48.7311 17.12 48.7311 18.192C48.7311 19.28 49.0271 20.2 49.6191 20.952C50.2271 21.688 51.0431 22.056 52.0671 22.056ZM63.4729 24H60.6649V7.992H67.6969C69.3129 7.992 70.5849 8.472 71.5129 9.432C72.4569 10.392 72.9289 11.584 72.9289 13.008C72.9289 14.416 72.4569 15.608 71.5129 16.584C70.5849 17.544 69.3129 18.024 67.6969 18.024H63.4729V24ZM67.3129 15.552C68.1129 15.552 68.7689 15.32 69.2809 14.856C69.7929 14.392 70.0489 13.776 70.0489 13.008C70.0489 12.24 69.7929 11.624 69.2809 11.16C68.7689 10.696 68.1129 10.464 67.3129 10.464H63.4729V15.552H67.3129ZM84.3258 24H81.8058V22.752C80.9098 23.776 79.6618 24.288 78.0618 24.288C77.0058 24.288 76.0698 23.952 75.2538 23.28C74.4378 22.592 74.0298 21.648 74.0298 20.448C74.0298 19.216 74.4298 18.28 75.2298 17.64C76.0458 17 76.9898 16.68 78.0618 16.68C79.7098 16.68 80.9578 17.176 81.8058 18.168V16.44C81.8058 15.768 81.5578 15.24 81.0618 14.856C80.5658 14.472 79.9098 14.28 79.0938 14.28C77.7978 14.28 76.6538 14.768 75.6618 15.744L74.6298 13.992C75.9418 12.744 77.5658 12.12 79.5018 12.12C80.9258 12.12 82.0858 12.456 82.9818 13.128C83.8778 13.8 84.3258 14.864 84.3258 16.32V24ZM79.0458 22.56C80.3098 22.56 81.2298 22.16 81.8058 21.36V19.608C81.2298 18.808 80.3098 18.408 79.0458 18.408C78.3258 18.408 77.7338 18.6 77.2698 18.984C76.8058 19.368 76.5738 19.872 76.5738 20.496C76.5738 21.12 76.8058 21.624 77.2698 22.008C77.7338 22.376 78.3258 22.56 79.0458 22.56ZM90.1129 24H87.5929V12.408H90.1129V14.112C90.5609 13.536 91.1209 13.064 91.7929 12.696C92.4649 12.328 93.1609 12.144 93.8809 12.144V14.64C93.6569 14.592 93.3929 14.568 93.0889 14.568C92.5609 14.568 91.9929 14.728 91.3849 15.048C90.7929 15.352 90.3689 15.704 90.1129 16.104V24ZM106.761 24H103.593L100.041 19.224L98.4333 20.88V24H95.9133V7.992H98.4333V18L103.545 12.408H106.665L101.841 17.664L106.761 24Z" fill="#09281F"/>
<path d="M29.68 39H28.996V30.996H34.072V31.62H29.68V34.584H33.988V35.208H29.68V39ZM38.3079 32.292C38.1799 32.292 38.0679 32.244 37.9719 32.148C37.8759 32.052 37.8279 31.94 37.8279 31.812C37.8279 31.684 37.8759 31.576 37.9719 31.488C38.0679 31.392 38.1799 31.344 38.3079 31.344C38.4439 31.344 38.5559 31.392 38.6439 31.488C38.7399 31.576 38.7879 31.684 38.7879 31.812C38.7879 31.948 38.7399 32.064 38.6439 32.16C38.5559 32.248 38.4439 32.292 38.3079 32.292ZM38.6199 39H37.9959V33.204H38.6199V39ZM47.6183 39H46.9943V35.076C46.9943 34.548 46.8743 34.176 46.6343 33.96C46.3943 33.736 46.0463 33.624 45.5903 33.624C45.2303 33.624 44.8743 33.72 44.5223 33.912C44.1703 34.104 43.8983 34.34 43.7063 34.62V39H43.0823V33.204H43.7063V34.08C43.9383 33.808 44.2463 33.572 44.6303 33.372C45.0143 33.164 45.4023 33.06 45.7943 33.06C47.0103 33.06 47.6183 33.688 47.6183 34.944V39ZM56.9908 39H56.3548V38.076C56.1388 38.388 55.8508 38.644 55.4908 38.844C55.1388 39.044 54.7548 39.144 54.3388 39.144C53.5628 39.144 52.9348 38.868 52.4548 38.316C51.9828 37.764 51.7468 37.028 51.7468 36.108C51.7468 35.196 51.9868 34.46 52.4668 33.9C52.9468 33.34 53.5708 33.06 54.3388 33.06C55.1708 33.06 55.8428 33.42 56.3548 34.14V30.996H56.9908V39ZM54.4468 38.58C54.8388 38.58 55.2108 38.48 55.5628 38.28C55.9148 38.08 56.1788 37.836 56.3548 37.548V34.68C56.1788 34.384 55.9148 34.136 55.5628 33.936C55.2108 33.728 54.8388 33.624 54.4468 33.624C53.8228 33.624 53.3268 33.86 52.9588 34.332C52.5988 34.796 52.4188 35.388 52.4188 36.108C52.4188 36.828 52.5988 37.42 52.9588 37.884C53.3268 38.348 53.8228 38.58 54.4468 38.58ZM66.6997 41.268L66.8077 40.692C66.9517 40.756 67.1197 40.788 67.3117 40.788C67.7037 40.788 67.9957 40.552 68.1877 40.08L68.6437 39.048L66.1957 33.204H66.8917L69.0037 38.268L71.0917 33.204H71.7997L68.7997 40.272C68.4957 40.992 67.9997 41.352 67.3117 41.352C67.0877 41.352 66.8837 41.324 66.6997 41.268ZM77.8291 39.144C76.9971 39.144 76.3251 38.852 75.8131 38.268C75.3011 37.684 75.0451 36.96 75.0451 36.096C75.0451 35.232 75.3011 34.512 75.8131 33.936C76.3251 33.352 76.9971 33.06 77.8291 33.06C78.6691 33.06 79.3451 33.352 79.8571 33.936C80.3691 34.512 80.6251 35.232 80.6251 36.096C80.6251 36.96 80.3691 37.684 79.8571 38.268C79.3451 38.852 78.6691 39.144 77.8291 39.144ZM77.8291 38.58C78.4851 38.58 79.0011 38.34 79.3771 37.86C79.7611 37.372 79.9531 36.784 79.9531 36.096C79.9531 35.416 79.7611 34.836 79.3771 34.356C79.0011 33.868 78.4851 33.624 77.8291 33.624C77.1811 33.624 76.6651 33.868 76.2811 34.356C75.9051 34.836 75.7171 35.416 75.7171 36.096C75.7171 36.776 75.9051 37.36 76.2811 37.848C76.6651 38.336 77.1811 38.58 77.8291 38.58ZM89.2925 39H88.6685V38.148C88.4045 38.436 88.0885 38.676 87.7205 38.868C87.3525 39.052 86.9725 39.144 86.5805 39.144C85.9725 39.144 85.5165 38.996 85.2125 38.7C84.9085 38.396 84.7565 37.924 84.7565 37.284V33.204H85.3805V37.14C85.3805 37.676 85.5005 38.052 85.7405 38.268C85.9805 38.476 86.3285 38.58 86.7845 38.58C87.1445 38.58 87.4965 38.488 87.8405 38.304C88.1925 38.12 88.4685 37.892 88.6685 37.62V33.204H89.2925V39ZM94.381 39H93.757V33.204H94.381V34.2C94.949 33.456 95.601 33.084 96.337 33.084V33.768C96.265 33.752 96.161 33.744 96.025 33.744C95.737 33.744 95.425 33.852 95.089 34.068C94.753 34.284 94.517 34.52 94.381 34.776V39ZM107.439 39.144C106.503 39.144 105.759 38.84 105.207 38.232L105.579 37.764C105.779 38.012 106.043 38.216 106.371 38.376C106.699 38.536 107.059 38.616 107.451 38.616C107.923 38.616 108.299 38.508 108.579 38.292C108.859 38.068 108.999 37.784 108.999 37.44C108.999 37.152 108.871 36.924 108.615 36.756C108.367 36.58 108.063 36.452 107.703 36.372C107.351 36.284 106.995 36.192 106.635 36.096C106.275 35.992 105.967 35.824 105.711 35.592C105.463 35.36 105.339 35.052 105.339 34.668C105.339 34.212 105.523 33.832 105.891 33.528C106.267 33.216 106.771 33.06 107.403 33.06C108.275 33.06 108.967 33.344 109.479 33.912L109.131 34.356C108.755 33.844 108.179 33.588 107.403 33.588C106.963 33.588 106.611 33.688 106.347 33.888C106.083 34.088 105.951 34.34 105.951 34.644C105.951 34.908 106.075 35.116 106.323 35.268C106.579 35.42 106.883 35.54 107.235 35.628C107.595 35.708 107.955 35.8 108.315 35.904C108.675 36.008 108.979 36.188 109.227 36.444C109.483 36.7 109.611 37.032 109.611 37.44C109.611 37.936 109.423 38.344 109.047 38.664C108.671 38.984 108.135 39.144 107.439 39.144ZM116.379 39.144C115.547 39.144 114.875 38.784 114.363 38.064V41.208H113.739V33.204H114.363V34.116C114.579 33.804 114.863 33.552 115.215 33.36C115.575 33.16 115.963 33.06 116.379 33.06C117.155 33.06 117.779 33.336 118.251 33.888C118.731 34.432 118.971 35.168 118.971 36.096C118.971 37.016 118.731 37.756 118.251 38.316C117.779 38.868 117.155 39.144 116.379 39.144ZM116.271 38.58C116.903 38.58 117.399 38.348 117.759 37.884C118.119 37.42 118.299 36.824 118.299 36.096C118.299 35.376 118.119 34.784 117.759 34.32C117.399 33.856 116.903 33.624 116.271 33.624C115.879 33.624 115.507 33.724 115.155 33.924C114.803 34.124 114.539 34.368 114.363 34.656V37.524C114.539 37.812 114.803 38.06 115.155 38.268C115.515 38.476 115.887 38.58 116.271 38.58ZM125.515 39.144C124.683 39.144 124.011 38.852 123.499 38.268C122.987 37.684 122.731 36.96 122.731 36.096C122.731 35.232 122.987 34.512 123.499 33.936C124.011 33.352 124.683 33.06 125.515 33.06C126.355 33.06 127.031 33.352 127.543 33.936C128.055 34.512 128.311 35.232 128.311 36.096C128.311 36.96 128.055 37.684 127.543 38.268C127.031 38.852 126.355 39.144 125.515 39.144ZM125.515 38.58C126.171 38.58 126.687 38.34 127.063 37.86C127.447 37.372 127.639 36.784 127.639 36.096C127.639 35.416 127.447 34.836 127.063 34.356C126.687 33.868 126.171 33.624 125.515 33.624C124.867 33.624 124.351 33.868 123.967 34.356C123.591 34.836 123.403 35.416 123.403 36.096C123.403 36.776 123.591 37.36 123.967 37.848C124.351 38.336 124.867 38.58 125.515 38.58ZM133.703 39.144C132.943 39.144 132.563 38.724 132.563 37.884V33.756H131.603V33.204H132.563V31.62H133.199V33.204H134.375V33.756H133.199V37.788C133.199 38.316 133.399 38.58 133.799 38.58C134.063 38.58 134.279 38.488 134.447 38.304L134.687 38.784C134.431 39.024 134.103 39.144 133.703 39.144Z" fill="#53D269"/>
</svg>
