<svg width="141.000000" height="41.455078" viewBox="0 0 141 41.4551" fill="none" xmlns="http://www.w3.org/2000/svg" xmlns:xlink="http://www.w3.org/1999/xlink">
	<desc>
			Created with Pixso.
	</desc>
	<defs/>
	<path id="path14" d="M18.9136 6.7135C19.052 6.01788 19.1832 5.37091 19.2751 4.94061C19.5831 3.50104 20.5329 1.20807 22.0214 0.248413C22.0214 0.248413 14.3469 -0.844604 8.90576 1.55481C3.46442 3.95422 -0.982483 9.04138 0.188721 17.5352L0.190125 17.5352C0.178528 17.3637 0.16925 17.1931 0.162598 17.0237L0.16217 17.0169C0.155518 16.849 0.151367 16.6824 0.149231 16.5166L0.148987 16.5057C0.147034 16.3413 0.147644 16.1782 0.150391 16.0158L0.150391 16.0013C0.15332 15.8422 0.158264 15.6846 0.165344 15.5277L0.166504 15.4995C0.173584 15.3437 0.183044 15.1891 0.194397 15.0353L0.196167 15.0118C0.207825 14.8589 0.221558 14.7069 0.237061 14.556L0.240234 14.5266C0.256165 14.3767 0.274048 14.2276 0.293701 14.0796L0.297668 14.0518C0.317688 13.9041 0.339722 13.7573 0.363892 13.6119L0.368652 13.5829C0.392822 13.4377 0.418945 13.2935 0.447083 13.1506L0.452759 13.1224C0.481079 12.9794 0.511353 12.8373 0.543396 12.6966L0.549683 12.6692C0.582153 12.5283 0.616516 12.3884 0.65271 12.2499L0.659607 12.2238C0.69635 12.0845 0.73468 11.9467 0.775024 11.8096L0.781494 11.788C0.822388 11.65 0.865051 11.5131 0.909668 11.3773L0.915405 11.3602C0.960632 11.2235 1.00763 11.0879 1.05634 10.9536L1.06189 10.939C1.11139 10.803 1.1629 10.6682 1.21643 10.5347L1.21716 10.5328C2.14795 8.20758 3.64337 6.26215 5.53296 4.7666L5.53589 4.76416C5.6391 4.6825 5.7439 4.60223 5.84967 4.52338L5.87799 4.50177C5.97473 4.42987 6.07263 4.35962 6.17114 4.28973C6.19122 4.2757 6.21088 4.26099 6.2309 4.24707C6.32153 4.18378 6.41339 4.12189 6.50537 4.06042C6.53448 4.04102 6.56299 4.02142 6.5921 4.0022C6.68054 3.94403 6.77045 3.88721 6.86029 3.83087C6.89288 3.81042 6.92493 3.78961 6.95776 3.76959C7.04626 3.71484 7.13593 3.66156 7.22577 3.6087C7.26099 3.58783 7.29596 3.56683 7.33136 3.54639C7.41882 3.49573 7.50732 3.44629 7.59601 3.39728C7.63531 3.37567 7.67444 3.35358 7.71393 3.33234C7.79926 3.28601 7.88556 3.24109 7.97192 3.19653C8.01636 3.17346 8.06079 3.15021 8.10559 3.1275C8.18817 3.08588 8.27112 3.04523 8.35449 3.005C8.40387 2.98108 8.45319 2.95721 8.50275 2.93372C8.58551 2.89471 8.66907 2.85693 8.75262 2.81915C8.80298 2.79651 8.85352 2.7738 8.90424 2.75153C8.98657 2.71539 9.06976 2.6803 9.15295 2.64557C9.20697 2.62268 9.26105 2.60022 9.31531 2.57837C9.39636 2.54547 9.47772 2.51343 9.55933 2.48175C9.61676 2.45972 9.67413 2.43768 9.73193 2.41602C9.81274 2.3858 9.89374 2.35638 9.97516 2.32715C10.0349 2.30591 10.0947 2.28491 10.1547 2.26428C10.2345 2.23694 10.3147 2.21014 10.3949 2.18384C10.4578 2.16321 10.5208 2.14294 10.5839 2.12317C10.6625 2.09845 10.7413 2.07434 10.8206 2.05066C10.8867 2.03088 10.9527 2.01166 11.0189 1.99268C11.0976 1.9704 11.1765 1.94855 11.2555 1.92712C11.3217 1.90912 11.3884 1.89178 11.455 1.87463C11.5347 1.854 11.6147 1.83398 11.6949 1.81458C11.7633 1.79803 11.8322 1.78192 11.9009 1.76617C11.9798 1.74799 12.0586 1.73022 12.1376 1.71307C12.2083 1.698 12.279 1.68347 12.35 1.66919C12.4286 1.65326 12.5075 1.63751 12.5865 1.62262C12.6599 1.6087 12.7338 1.59564 12.8075 1.58276C12.8844 1.56934 12.9612 1.55585 13.0383 1.5434C13.1146 1.53094 13.1911 1.51947 13.2678 1.50806C13.3441 1.49658 13.4202 1.48517 13.4968 1.47473C13.5741 1.46436 13.6516 1.45477 13.729 1.44513C13.8065 1.43555 13.8839 1.42596 13.9618 1.41736C14.0392 1.40881 14.1171 1.40125 14.1949 1.39349C14.2722 1.38593 14.3495 1.37817 14.4272 1.3714C14.507 1.36469 14.5872 1.35895 14.6672 1.35327C14.7443 1.34753 14.8214 1.34161 14.8989 1.3371C14.98 1.33221 15.0614 1.32855 15.143 1.32465C15.2191 1.32098 15.2952 1.31708 15.3717 1.31421C15.4566 1.3114 15.5421 1.30957 15.6274 1.30768C15.701 1.30609 15.7745 1.30383 15.8483 1.30298C15.9344 1.302 16.0207 1.30261 16.107 1.3028C16.1819 1.3028 16.2564 1.30261 16.3315 1.30359C16.4163 1.30481 16.5012 1.3075 16.5863 1.30957C16.6628 1.31158 16.7393 1.31299 16.816 1.3161C16.9023 1.31915 16.989 1.32422 17.0755 1.32874C17.1508 1.3324 17.2263 1.33569 17.3018 1.34039C17.394 1.34607 17.4866 1.35364 17.579 1.3606C17.6492 1.36609 17.719 1.37061 17.7894 1.37653C17.889 1.38507 17.9893 1.39569 18.0894 1.40594C18.1533 1.41248 18.217 1.41797 18.2811 1.42511C18.3904 1.43719 18.4999 1.45148 18.6094 1.46533C18.6645 1.47253 18.7194 1.47821 18.7746 1.48578C18.9391 1.50806 19.1041 1.53235 19.2695 1.55872C18.5756 2.67621 18.0961 4.72717 17.4424 7.02716C17.0317 8.47266 16.5523 10.0168 15.908 11.4894C15.8872 11.537 15.866 11.5848 15.8445 11.6322L15.8423 11.6367L15.8404 11.6409L15.8365 11.65L15.8343 11.6544L15.8323 11.6589L15.8302 11.6635L15.8282 11.6677L15.7791 11.7745L16.2342 11.4898C15.2022 15.2857 14.6138 20.213 14.4358 21.8594C16.4119 20.7093 17.406 18.4007 18.0253 16.3085C18.6553 13.8662 19.2852 11.4239 19.9153 8.98157C23.991 13.2198 24.1424 17.8698 22.5007 22.303L22.5013 22.3018C27.3401 13.0621 18.9136 6.7135 18.9136 6.7135ZM5.18103 17.6792L6.28735 17.7111L8.6571 16.229C8.62701 16.2162 8.59674 16.2031 8.56647 16.1898C8.53894 16.1773 8.51099 16.1647 8.48328 16.1518L8.43018 16.1267C8.38873 16.1067 8.34705 16.0861 8.30536 16.0644L8.28687 16.0548C8.23773 16.0291 8.18835 16.0025 8.13904 15.9745C3.73615 13.4912 7.30969 7.75397 11.4548 5.51324C12.1217 5.15259 12.8033 4.88263 13.4693 4.73126C13.4693 4.73126 12.4865 4.89404 11.1538 5.52795C9.51489 6.30768 7.34686 7.80011 5.82825 10.5788C5.78656 10.655 5.74628 10.7318 5.70697 10.809L5.69714 10.8284C5.66113 10.8997 5.62634 10.9713 5.59235 11.0432L5.57977 11.0699C5.54633 11.1414 5.51392 11.2131 5.4826 11.2852L5.47278 11.3077C5.43994 11.3836 5.40833 11.46 5.37762 11.5366L5.37427 11.5447C5.34283 11.6238 5.31256 11.7032 5.28345 11.7827L5.27777 11.799C5.25043 11.874 5.2243 11.9495 5.19934 12.0251L5.19086 12.0502C5.16748 12.1215 5.14484 12.193 5.12323 12.2646L5.11182 12.303C5.091 12.3733 5.07111 12.4438 5.05206 12.5142L5.04303 12.5471C5.02277 12.6229 5.00366 12.6988 4.9856 12.7748L4.97852 12.8058C4.96161 12.8777 4.9455 12.9496 4.93054 13.0217L4.92151 13.0662C4.90796 13.1326 4.89514 13.1992 4.88318 13.2657L4.87372 13.3192C4.8623 13.384 4.85193 13.4489 4.8421 13.5139L4.8338 13.5678C4.8244 13.6342 4.81555 13.7003 4.80725 13.7667L4.7998 13.8306C4.79211 13.8962 4.78503 13.9622 4.77899 14.0277L4.77289 14.0955C4.76794 14.1545 4.76324 14.2133 4.75928 14.2722L4.75439 14.3506C4.75122 14.4055 4.74866 14.4607 4.74634 14.5156C4.74536 14.5419 4.74438 14.5685 4.74335 14.5948C4.74158 14.6514 4.7406 14.7078 4.73981 14.7643C4.73926 14.7976 4.73907 14.8309 4.73907 14.864C4.73883 14.9138 4.73926 14.9633 4.74005 15.0127C4.74042 15.0507 4.74121 15.0882 4.74237 15.126C4.74359 15.1716 4.74493 15.2171 4.74689 15.2624C4.74847 15.3004 4.75024 15.3384 4.7522 15.3764C4.75476 15.4219 4.75751 15.4675 4.76068 15.513C4.76306 15.5479 4.76556 15.5827 4.76837 15.6172C4.77209 15.6625 4.77618 15.7074 4.78052 15.7526C4.78503 15.8001 4.78998 15.8475 4.79529 15.8949C4.79865 15.9264 4.80237 15.9578 4.80627 15.9893C4.81256 16.0405 4.81927 16.0918 4.82635 16.1428L4.83875 16.229C4.84619 16.2791 4.85406 16.3289 4.8623 16.3787C4.86859 16.4157 4.87488 16.4526 4.88141 16.4894C4.89008 16.537 4.89886 16.5844 4.90833 16.632C4.91461 16.664 4.92114 16.6963 4.9278 16.7283C4.93921 16.7833 4.95117 16.8382 4.96356 16.8932L4.97931 16.9612C4.99231 17.0165 5.00586 17.0714 5.02002 17.1264L5.03436 17.1817C5.04932 17.2381 5.06445 17.2943 5.08038 17.35L5.09924 17.4147C5.11475 17.4682 5.13068 17.5213 5.1474 17.5742L5.14758 17.575C5.15863 17.6098 5.16962 17.6445 5.18103 17.6792Z" fill="#53D269" fill-opacity="1.000000" fill-rule="evenodd"/>
	<path id="path16" d="M16.9384 33.3129C20.7072 33.9766 23.2974 35.3539 23.2974 36.9456C23.2974 39.1847 18.1708 41 11.8469 41C5.52271 41 0.396118 39.1847 0.396118 36.9456C0.396118 34.7996 5.10333 33.0435 11.0606 32.9005L11.1343 34.082C6.18488 34.1912 2.28259 35.4313 2.28259 36.9456C2.28259 38.5316 6.56451 39.8169 11.8469 39.8169C17.129 39.8169 21.4111 38.5316 21.4111 36.9456C21.4111 35.7974 19.1672 34.8072 15.9245 34.3474L16.9384 33.3129Z" fill="#53D269" fill-opacity="1.000000" fill-rule="evenodd"/>
	<path id="path18" d="M11.1519 5.52899C11.2524 5.52264 11.3527 5.51776 11.4531 5.51428C7.30896 7.75562 3.73682 13.4916 8.1391 15.9745C11.4944 17.8673 14.4526 14.8156 15.9081 11.4894C16.5524 10.0168 17.0317 8.47302 17.4424 7.02777C18.3256 7.54486 19.1569 8.19385 19.9089 8.97504L19.9152 8.98175L18.0254 16.3084C17.1443 19.2846 15.5051 22.6984 11.3599 22.5932C5.76367 22.4513 3.0752 15.6163 5.82831 10.5788C7.34637 7.80133 9.51318 6.30908 11.1519 5.52899ZM17.6693 30.4261C15.7162 32.905 13.5922 35.1323 11.8469 36.9453C8.54962 33.5203 3.90192 28.618 1.60791 23.3312C2.35559 24.9213 3.37799 26.3464 4.59204 27.5374C7.42004 30.3126 11.2866 31.8198 15.1376 31.1942C15.626 31.115 16.0921 31.0025 16.5369 30.862C16.931 30.7374 17.3085 30.5909 17.6693 30.4261ZM0.46582 19.7488C0.388733 19.3546 0.328369 18.9597 0.286499 18.5645C0.333862 18.9542 0.393433 19.3489 0.46582 19.7488Z" fill="#53D269" fill-opacity="1.000000" fill-rule="evenodd"/>
	<path id="path20" d="M11.8469 35.7766C13.67 35.7766 15.1479 36.2998 15.1479 36.9456C15.1479 37.5911 13.67 38.1143 11.8469 38.1143C10.0237 38.1143 8.54559 37.5911 8.54559 36.9456C8.54559 36.2998 10.0237 35.7766 11.8469 35.7766Z" fill="#53D269" fill-opacity="1.000000" fill-rule="evenodd"/>
	<path id="path22" d="M0.166321 15.4995C0.166321 15.4995 1.2066 2.45892 16.8578 3.13342C16.8578 3.13342 16.8578 5.69684 16.1434 8.49634C15.4291 11.2958 12.0519 15.7144 9.03204 13.3871C6.01208 11.0598 9.0094 6.26154 13.4693 4.73126C12.8036 4.88263 12.1218 5.15259 11.4548 5.51324C11.4542 5.51343 11.4537 5.51385 11.4531 5.51428C7.30896 7.75562 3.73676 13.4916 8.13904 15.9745C8.18835 16.0025 8.23773 16.0293 8.28687 16.0548L8.30536 16.0644C8.34723 16.0861 8.38873 16.1067 8.43018 16.1267L8.48309 16.1522C8.54108 16.1794 8.59869 16.2051 8.65631 16.2292C11.7016 17.5107 14.3623 14.8154 15.7791 11.7745L15.8282 11.6677L15.8302 11.6634L15.8323 11.6589L15.8343 11.6544L15.8365 11.6499L15.8404 11.6412L15.8426 11.6367L15.8445 11.6321C15.866 11.5848 15.8872 11.537 15.908 11.4894C16.5523 10.017 17.0317 8.47302 17.4424 7.02716C18.0959 4.72699 18.5756 2.67639 19.2695 1.55865C19.1041 1.53235 18.9391 1.50806 18.7746 1.48578C18.7195 1.47821 18.6645 1.47247 18.6094 1.46533C18.4999 1.45148 18.3904 1.43719 18.2811 1.42511C18.2172 1.41797 18.1533 1.41248 18.0894 1.40594C17.9893 1.39569 17.8891 1.38507 17.7894 1.37653C17.719 1.37061 17.6492 1.36609 17.579 1.3606C17.4866 1.35364 17.394 1.34607 17.3018 1.34039C17.2263 1.33569 17.1508 1.3324 17.0755 1.32874C16.989 1.32422 16.9023 1.31934 16.816 1.31604C16.7393 1.31299 16.6628 1.31158 16.5864 1.30975C16.5012 1.3075 16.4163 1.30481 16.3315 1.30359C16.2564 1.30261 16.1819 1.3028 16.107 1.3028C16.0207 1.30261 15.9344 1.30194 15.8483 1.30298C15.7745 1.30383 15.7012 1.30603 15.6275 1.30768C15.5422 1.30951 15.4566 1.31116 15.3717 1.31421C15.2952 1.31708 15.2191 1.32098 15.1428 1.32465C15.0615 1.32849 14.98 1.33221 14.8989 1.3371C14.8214 1.3418 14.7443 1.34753 14.6672 1.35321C14.5872 1.35895 14.507 1.36469 14.4272 1.3714C14.3495 1.37817 14.2723 1.38593 14.195 1.39343C14.1171 1.40125 14.0392 1.40857 13.9618 1.41736C13.884 1.4259 13.8065 1.43555 13.729 1.44513C13.6516 1.45471 13.5741 1.46436 13.4968 1.47473C13.4202 1.48517 13.3441 1.49658 13.2678 1.50806C13.1911 1.51947 13.1146 1.53088 13.0383 1.54333C12.9612 1.55585 12.8844 1.56927 12.8075 1.58276C12.7338 1.59564 12.6599 1.6087 12.5865 1.62262C12.5075 1.63751 12.4286 1.65326 12.35 1.66919C12.2791 1.68347 12.2083 1.69794 12.1377 1.71307C12.0587 1.73022 11.9798 1.74799 11.9009 1.76617C11.8322 1.78192 11.7633 1.79803 11.6949 1.81458C11.6147 1.83374 11.5347 1.85419 11.455 1.87463C11.3884 1.89178 11.3217 1.90912 11.2555 1.92712C11.1765 1.94855 11.0976 1.9704 11.019 1.99286C10.9527 2.01166 10.8867 2.03082 10.8206 2.05066C10.7413 2.07416 10.6625 2.09845 10.5839 2.12317C10.5208 2.14294 10.4578 2.16321 10.3949 2.18378C10.3145 2.21014 10.2345 2.23688 10.1547 2.26428C10.0947 2.28467 10.0349 2.30591 9.97516 2.32715C9.89398 2.35638 9.81274 2.3858 9.73193 2.41602C9.67413 2.43762 9.61676 2.45972 9.55933 2.48199C9.47772 2.51343 9.39636 2.54547 9.31537 2.57819C9.26105 2.60022 9.20703 2.62286 9.15295 2.64557C9.06976 2.6803 8.98682 2.71539 8.90424 2.75153C8.85352 2.7738 8.80298 2.79645 8.75262 2.81915C8.66907 2.85693 8.58551 2.89471 8.50275 2.93372C8.45319 2.95721 8.40387 2.98108 8.35449 3.005C8.27112 3.04523 8.18799 3.08588 8.10559 3.1275C8.06079 3.15021 8.01636 3.17346 7.97192 3.19653C7.88562 3.24109 7.79926 3.28601 7.71393 3.33215C7.67462 3.35358 7.63531 3.37567 7.59601 3.39728C7.50732 3.44629 7.41907 3.49573 7.33136 3.54639C7.29596 3.56677 7.26099 3.58783 7.22577 3.60864C7.13593 3.66156 7.04626 3.71484 6.95758 3.76959C6.92499 3.78961 6.89294 3.81042 6.86029 3.83087C6.77045 3.88721 6.68079 3.94397 6.59229 4.0022C6.56299 4.02142 6.53448 4.04102 6.50562 4.06042C6.41339 4.12189 6.32159 4.18378 6.23096 4.24707C6.21088 4.26093 6.19122 4.27563 6.17114 4.28973C6.07269 4.35962 5.97473 4.42987 5.87799 4.50171L5.84973 4.52338C5.74396 4.60223 5.63916 4.6825 5.53589 4.76416L5.53296 4.7666C3.64337 6.26215 2.14795 8.20758 1.21722 10.5328L1.21643 10.5347C1.16296 10.6682 1.11145 10.803 1.06189 10.939L1.05658 10.9536C1.00763 11.0879 0.960632 11.2233 0.915405 11.3602L0.909729 11.3773C0.865051 11.5131 0.822388 11.6499 0.781494 11.788L0.775024 11.8096C0.734741 11.9467 0.69635 12.0845 0.659607 12.2238L0.65271 12.2497C0.616577 12.3886 0.582153 12.5283 0.549683 12.6692L0.543396 12.6966C0.511353 12.8373 0.481079 12.9794 0.452759 13.1224L0.447083 13.1504C0.418945 13.2935 0.392822 13.4377 0.368652 13.5829L0.363892 13.6119C0.339722 13.7575 0.317688 13.9041 0.297485 14.0518L0.293945 14.0796C0.274048 14.2276 0.256165 14.3767 0.240234 14.5266L0.237122 14.556C0.221375 14.7069 0.207825 14.8589 0.196228 15.0118L0.194458 15.0353C0.183044 15.1891 0.173584 15.3437 0.166321 15.4995Z" fill="#E3EDF6" fill-opacity="1.000000" fill-rule="evenodd"/>
	<path id="path24" d="M22.5055 22.2895C22.5041 22.2936 22.5025 22.2977 22.5012 22.3016C22.5027 22.2977 22.5041 22.2936 22.5055 22.2895ZM19.9152 8.98175L18.0253 16.3085C17.406 18.4007 16.4117 20.7093 14.4359 21.8594C13.8012 22.2289 13.0655 22.4786 12.2081 22.5636C12.2081 22.5636 16.6628 22.4268 18.2214 18.8851C19.7801 15.3435 19.9099 13.1175 21.3712 13.0836C22.8307 13.0501 23.8228 18.5237 22.5057 22.2895C24.1423 17.8604 23.9869 13.2157 19.9152 8.98175Z" fill="#E3EDF6" fill-opacity="1.000000" fill-rule="evenodd"/>
	<path id="path26" d="M8.54559 36.9456C8.54559 36.4312 9.48322 35.9945 10.7859 35.8381C10.2859 35.3124 9.76654 34.7594 9.23822 34.182C5.22388 34.5231 2.28259 35.631 2.28259 36.9456C2.28259 38.2126 5.01544 39.2878 8.80768 39.6691C5.71149 39.2386 1.85754 37.4713 3.73828 36.2725C5.88153 34.9066 8.36591 34.9908 8.36591 34.9908L8.59314 35.6316C7.9599 35.6821 5.26477 37.1327 8.90161 37.959C12.5385 38.7854 14.5087 37.6369 14.5087 37.6369C13.9079 37.9265 12.9392 38.1143 11.8469 38.1143C10.0235 38.1143 8.54559 37.5911 8.54559 36.9456Z" fill="#E3EDF6" fill-opacity="1.000000" fill-rule="evenodd"/>
	<path id="path28" d="M11.8897 31.2326C12.9577 31.3777 14.0483 31.3713 15.1375 31.1942C15.6259 31.115 16.092 31.0025 16.5368 30.862C16.931 30.7374 17.3085 30.591 17.6693 30.4262C17.3387 30.4756 17.0124 30.5138 16.6904 30.5418C7.28967 31.357 1.60785 23.3313 1.60785 23.3313C2.35553 24.9216 3.37793 26.3462 4.59198 27.5374C6.62 29.5276 9.18225 30.8659 11.8897 31.2326Z" fill="#E3EDF6" fill-opacity="1.000000" fill-rule="evenodd"/>
	<path id="GoPark" d="M42.0449 14L44.2246 14C43.5801 10.625 40.75 8.30469 37.0703 8.30469C32.5938 8.30469 29.4297 11.75 29.4297 17.2754C29.4297 22.7949 32.5703 26.2402 37.2051 26.2402C41.3652 26.2402 44.3301 23.4688 44.3301 19.1504L44.3301 17.2754L37.6797 17.2754L37.6797 19.1504L42.2852 19.1504C42.2266 22.2852 40.1641 24.2598 37.2051 24.2598C33.9648 24.2598 31.4746 21.8047 31.4746 17.2754C31.4746 12.7402 33.9648 10.2852 37.0703 10.2852C39.5898 10.2852 41.3066 11.709 42.0449 14ZM52.9897 26.2754C56.5346 26.2754 58.9194 23.5801 58.9194 19.5254C58.9194 15.4297 56.5346 12.7402 52.9897 12.7402C49.4448 12.7402 47.0542 15.4297 47.0542 19.5254C47.0542 23.5801 49.4448 26.2754 52.9897 26.2754ZM52.9897 24.4648C50.2944 24.4648 49.0698 22.1504 49.0698 19.5254C49.0698 16.9004 50.2944 14.5449 52.9897 14.5449C55.6792 14.5449 56.9096 16.9004 56.9096 19.5254C56.9096 22.1504 55.6792 24.4648 52.9897 24.4648ZM62.263 26L64.3723 26L64.3723 19.625L68.1926 19.625C72.2591 19.625 74.093 17.1523 74.093 14.0703C74.093 10.9824 72.2591 8.54492 68.1575 8.54492L62.263 8.54492L62.263 26ZM64.3723 17.75L64.3723 10.4199L68.093 10.4199C70.929 10.4199 72.013 11.9727 72.013 14.0703C72.013 16.1621 70.929 17.75 68.1223 17.75L64.3723 17.75ZM81.0817 26.3047C83.361 26.3047 84.5563 25.0801 84.9664 24.2246L85.0661 24.2246L85.0661 26L87.0817 26L87.0817 17.375C87.0817 13.2148 83.9118 12.7402 82.236 12.7402C80.2614 12.7402 78.0114 13.4199 76.986 15.8047L78.8961 16.4902C79.3414 15.5352 80.3903 14.5098 82.3063 14.5098C84.1579 14.5098 85.0661 15.4941 85.0661 17.1699L85.0661 17.2402C85.0661 18.2129 84.0817 18.125 81.6911 18.4297C79.2653 18.7461 76.611 19.2852 76.611 22.2852C76.611 24.8398 78.5914 26.3047 81.0817 26.3047ZM81.3864 24.5C79.7868 24.5 78.6266 23.7852 78.6266 22.3848C78.6266 20.8496 80.0211 20.375 81.5914 20.1699C82.4411 20.0703 84.7262 19.8301 85.0661 19.4199L85.0661 21.2598C85.0661 22.9004 83.7711 24.5 81.3864 24.5ZM90.7603 26L92.7701 26L92.7701 17.7148C92.7701 15.9453 94.1705 14.6504 96.0806 14.6504C96.6138 14.6504 97.1705 14.75 97.3052 14.7852L97.3052 12.7402C97.0767 12.7227 96.5494 12.7051 96.2505 12.7051C94.6802 12.7051 93.3208 13.5898 92.8404 14.8848L92.7056 14.8848L92.7056 12.9102L90.7603 12.9102L90.7603 26ZM99.6921 26L101.702 26L101.702 21.1016L103.108 19.7949L108.012 26L110.567 26L104.626 18.5L110.157 12.9102L107.673 12.9102L101.942 18.7402L101.702 18.7402L101.702 8.54492L99.6921 8.54492L99.6921 26Z" fill="#09281F" fill-opacity="1.000000" fill-rule="evenodd"/>
	<path id="Find your spot" d="M29.1602 39L29.957 39L29.957 34.9893L33.8125 34.9893L33.8125 34.2744L29.957 34.2744L29.957 30.9873L34.208 30.9873L34.208 30.2725L29.1602 30.2725L29.1602 39ZM38.5663 39L39.328 39L39.328 32.4551L38.5663 32.4551L38.5663 39ZM38.953 31.3301C39.2635 31.3301 39.5243 31.0811 39.5243 30.7852C39.5243 30.4863 39.2635 30.2373 38.953 30.2373C38.6424 30.2373 38.3875 30.4863 38.3875 30.7852C38.3875 31.0811 38.6424 31.3301 38.953 31.3301ZM44.6189 34.9102C44.6189 33.7676 45.3689 33.0645 46.4002 33.0645C47.4051 33.0645 48.0525 33.7383 48.0525 34.8076L48.0525 39L48.8113 39L48.8113 34.7607C48.8113 33.208 47.9119 32.3701 46.5906 32.3701C45.6326 32.3701 44.9705 32.8125 44.6658 33.4805L44.5955 33.4805L44.5955 32.4551L43.8601 32.4551L43.8601 39L44.6189 39L44.6189 34.9102ZM55.6902 39.1377C56.8796 39.1377 57.4333 38.3818 57.7028 37.7842L57.7907 37.7842L57.7907 39L58.5319 39L58.5319 30.2725L57.7702 30.2725L57.7702 33.7031L57.7028 33.7031C57.4421 33.1143 56.9001 32.3643 55.7048 32.3643C54.0876 32.3643 52.9978 33.7295 52.9978 35.7451C52.9978 37.7783 54.0847 39.1377 55.6902 39.1377ZM55.781 38.4404C54.4773 38.4404 53.7595 37.2568 53.7595 35.7305C53.7595 34.2217 54.4685 33.0557 55.781 33.0557C57.0583 33.0557 57.7819 34.1631 57.7819 35.7305C57.7819 37.3125 57.0495 38.4404 55.781 38.4404ZM69.6364 41.4551C70.4538 41.4551 71.0573 40.9863 71.4059 40.0342L74.1745 32.4551L73.3542 32.4551L71.4089 37.998L71.3503 37.998L69.4079 32.4551L68.5846 32.4551L70.9928 39.0645L70.7526 39.7295C70.3923 40.7168 69.8796 40.8926 69.1091 40.6494L68.904 41.3174C69.0563 41.3906 69.3376 41.4551 69.6364 41.4551ZM80.4789 39.1377C82.1751 39.1377 83.3587 37.752 83.3587 35.7568C83.3587 33.75 82.1751 32.3643 80.4789 32.3643C78.7826 32.3643 77.599 33.75 77.599 35.7568C77.599 37.752 78.7826 39.1377 80.4789 39.1377ZM80.4789 38.4404C79.1195 38.4404 78.3607 37.2217 78.3607 35.7568C78.3607 34.292 79.1195 33.0557 80.4789 33.0557C81.8382 33.0557 82.597 34.292 82.597 35.7568C82.597 37.2217 81.8382 38.4404 80.4789 38.4404ZM91.704 36.498C91.704 37.6992 90.8017 38.3467 89.9169 38.3467C88.9706 38.3467 88.3056 37.6699 88.3056 36.6475L88.3056 32.4551L87.5468 32.4551L87.5468 36.6943C87.5468 38.2471 88.4403 39.085 89.6972 39.085C90.6581 39.085 91.3378 38.5869 91.6454 37.9131L91.704 37.9131L91.704 39L92.4628 39L92.4628 32.4551L91.704 32.4551L91.704 36.498ZM96.9872 39L97.746 39L97.746 34.7725C97.746 33.7998 98.4902 33.0967 99.5126 33.0967C99.7148 33.0967 99.9023 33.1318 99.9697 33.1406L99.9697 32.3701C99.8671 32.3643 99.6913 32.3555 99.5683 32.3555C98.748 32.3555 98.0449 32.8008 97.7783 33.46L97.7226 33.46L97.7226 32.4551L96.9872 32.4551L96.9872 39ZM114.078 33.8906C113.759 32.9443 113.059 32.3643 111.863 32.3643C110.542 32.3643 109.581 33.1201 109.581 34.1982C109.581 35.0742 110.114 35.6719 111.254 35.9443L112.323 36.1992C113.041 36.3721 113.387 36.7412 113.387 37.2656C113.387 37.9482 112.736 38.4551 111.728 38.4551C110.835 38.4551 110.275 38.0508 110.094 37.2744L109.364 37.4531C109.596 38.543 110.46 39.1377 111.743 39.1377C113.182 39.1377 114.172 38.3438 114.172 37.2305C114.172 36.3574 113.621 35.7744 112.525 35.5049L111.538 35.2617C110.724 35.0596 110.346 34.7314 110.346 34.1631C110.346 33.498 110.978 33.0352 111.863 33.0352C112.745 33.0352 113.179 33.498 113.384 34.0869L114.078 33.8906ZM118.354 41.4551L119.113 41.4551L119.113 37.7842L119.18 37.7842C119.444 38.3877 120.006 39.1377 121.193 39.1377C122.793 39.1377 123.885 37.7725 123.885 35.7451C123.885 33.7236 122.798 32.3643 121.184 32.3643C119.977 32.3643 119.45 33.1143 119.18 33.7031L119.089 33.7031L119.089 32.4551L118.354 32.4551L118.354 41.4551ZM119.104 35.7305C119.104 34.1631 119.819 33.0557 121.102 33.0557C122.418 33.0557 123.127 34.2217 123.127 35.7305C123.127 37.2568 122.403 38.4404 121.102 38.4404C119.836 38.4404 119.104 37.3125 119.104 35.7305ZM130.614 39.1377C132.311 39.1377 133.494 37.752 133.494 35.7568C133.494 33.75 132.311 32.3643 130.614 32.3643C128.918 32.3643 127.735 33.75 127.735 35.7568C127.735 37.752 128.918 39.1377 130.614 39.1377ZM130.614 38.4404C129.255 38.4404 128.496 37.2217 128.496 35.7568C128.496 34.292 129.255 33.0557 130.614 33.0557C131.974 33.0557 132.733 34.292 132.733 35.7568C132.733 37.2217 131.974 38.4404 130.614 38.4404ZM140.261 32.4551L138.875 32.4551L138.875 30.8877L138.113 30.8877L138.113 32.4551L137.137 32.4551L137.137 33.1143L138.113 33.1143L138.113 37.4707C138.113 38.54 138.957 39.0967 139.795 39.0967C140.111 39.0967 140.325 39.0381 140.469 38.9824L140.307 38.2969C140.199 38.3262 140.064 38.3555 139.865 38.3555C139.349 38.3555 138.875 38.1123 138.875 37.292L138.875 33.1143L140.261 33.1143L140.261 32.4551Z" fill="#53D269" fill-opacity="1.000000" fill-rule="evenodd"/>
</svg>
