<svg width="394.000000" height="456.000000" viewBox="0 0 394 456" fill="none" xmlns="http://www.w3.org/2000/svg" xmlns:xlink="http://www.w3.org/1999/xlink">
	<defs/>
	<path id="path14" d="M262.831 60.4843C264.169 54.241 265.437 48.434 266.327 44.5718C269.303 31.6508 278.484 11.0697 292.874 2.45633C292.874 2.45633 218.687 -7.35403 166.089 14.1822C113.49 35.7183 70.5027 81.3789 81.8243 157.616L81.8376 157.616C81.7255 156.076 81.6362 154.546 81.5716 153.024L81.5677 152.964C81.5032 151.457 81.4633 149.961 81.4423 148.473L81.4404 148.376C81.4214 146.9 81.4271 145.436 81.4537 143.978L81.4537 143.848C81.4822 142.42 81.5297 141.005 81.5981 139.598L81.6096 139.345C81.678 137.946 81.7692 136.558 81.8795 135.178L81.8965 134.967C82.0087 133.594 82.1417 132.231 82.2919 130.876L82.3223 130.612C82.4763 129.267 82.6492 127.929 82.8392 126.6L82.8773 126.35C83.0711 125.025 83.2839 123.707 83.5177 122.402L83.5634 122.142C83.7971 120.838 84.0499 119.544 84.3217 118.261L84.3768 118.008C84.6505 116.725 84.9432 115.449 85.2529 114.186L85.3138 113.941C85.6273 112.676 85.96 111.42 86.3096 110.178L86.3762 109.943C86.7316 108.693 87.1022 107.456 87.4918 106.226L87.5545 106.031C87.9498 104.792 88.3622 103.564 88.7937 102.345L88.8488 102.191C89.2859 100.965 89.7402 99.7476 90.2115 98.5415L90.2647 98.4113C90.7437 97.1906 91.2416 95.9808 91.7585 94.782L91.7661 94.7655C100.763 73.8947 115.219 56.4333 133.485 43.0101L133.514 42.9881C134.512 42.2549 135.525 41.5345 136.547 40.827L136.821 40.6327C137.756 39.9874 138.702 39.3569 139.654 38.73C139.848 38.6035 140.038 38.4715 140.232 38.3469C141.108 37.7787 141.996 37.2232 142.885 36.6715C143.167 36.4974 143.442 36.3214 143.724 36.1491C144.579 35.6267 145.447 35.1171 146.316 34.6112C146.631 34.4279 146.941 34.2409 147.259 34.0613C148.114 33.57 148.98 33.0916 149.849 32.6169C150.189 32.4299 150.528 32.2411 150.87 32.0578C151.715 31.6032 152.571 31.1596 153.428 30.7197C153.808 30.5254 154.186 30.3274 154.568 30.1368C155.393 29.7207 156.227 29.3174 157.062 28.9178C157.491 28.7107 157.921 28.5017 158.354 28.2983C159.152 27.9243 159.954 27.5595 160.76 27.1984C161.237 26.984 161.714 26.7695 162.193 26.5587C162.993 26.2086 163.801 25.8695 164.609 25.5304C165.095 25.3269 165.584 25.1235 166.074 24.9237C166.87 24.5992 167.674 24.2839 168.478 23.9723C169.001 23.767 169.524 23.5654 170.048 23.3692C170.831 23.0741 171.618 22.7864 172.407 22.5023C172.962 22.3043 173.517 22.1063 174.075 21.912C174.857 21.6407 175.64 21.3768 176.426 21.1146C177.004 20.924 177.582 20.7352 178.162 20.5501C178.933 20.3044 179.709 20.0643 180.484 19.8279C181.092 19.6427 181.701 19.4613 182.311 19.2835C183.071 19.0617 183.833 18.8454 184.599 18.6328C185.237 18.4549 185.876 18.2826 186.516 18.1122C187.277 17.9124 188.039 17.7162 188.803 17.5238C189.443 17.3625 190.088 17.2066 190.732 17.0527C191.502 16.8675 192.275 16.6879 193.051 16.5137C193.712 16.3653 194.377 16.2205 195.042 16.0793C195.805 15.9162 196.567 15.7567 197.331 15.6028C198.013 15.4671 198.697 15.337 199.383 15.2086C200.143 15.0657 200.906 14.9245 201.67 14.7907C202.379 14.6661 203.093 14.5487 203.806 14.4333C204.549 14.3123 205.292 14.1913 206.037 14.0795C206.775 13.9677 207.514 13.865 208.255 13.7624C208.992 13.6597 209.728 13.5571 210.469 13.4636C211.216 13.3701 211.965 13.284 212.714 13.1978C213.463 13.1117 214.211 13.0255 214.964 12.9485C215.713 12.8715 216.465 12.8037 217.218 12.7341C217.965 12.6662 218.712 12.5966 219.463 12.5361C220.234 12.4756 221.01 12.4243 221.783 12.373C222.528 12.3217 223.273 12.2685 224.022 12.2282C224.807 12.1842 225.594 12.1512 226.383 12.1164C227.118 12.0834 227.854 12.0485 228.593 12.0228C229.414 11.9972 230.241 11.9807 231.066 11.9642C231.776 11.9495 232.487 11.9294 233.2 11.922C234.032 11.9129 234.867 11.9184 235.701 11.9202C236.425 11.9202 237.145 11.9184 237.871 11.9275C238.691 11.9385 239.512 11.9624 240.335 11.9807C241.074 11.999 241.813 12.0118 242.554 12.0393C243.389 12.0668 244.227 12.1127 245.063 12.153C245.791 12.186 246.521 12.2153 247.251 12.2575C248.142 12.3088 249.037 12.3766 249.93 12.439C250.609 12.4884 251.284 12.5287 251.964 12.5819C252.928 12.6589 253.897 12.7542 254.864 12.8459C255.482 12.9045 256.098 12.954 256.717 13.0182C257.774 13.1263 258.833 13.2546 259.891 13.3793C260.423 13.4434 260.954 13.4948 261.488 13.5626C263.078 13.7624 264.673 13.9805 266.271 14.217C259.564 24.2473 254.929 42.6563 248.61 63.2998C244.639 76.274 240.006 90.1334 233.778 103.351C233.576 103.778 233.371 104.207 233.164 104.633L233.143 104.673L233.124 104.711L233.086 104.792L233.065 104.832L233.046 104.873L233.025 104.913L233.006 104.952L232.531 105.91L236.931 103.355C226.955 137.425 221.266 181.651 219.546 196.429C238.649 186.105 248.258 165.385 254.245 146.605C260.334 124.684 266.424 102.763 272.515 80.8418C311.913 118.883 313.377 160.619 297.507 200.41L297.513 200.399C344.287 117.467 262.831 60.4843 262.831 60.4843ZM130.083 158.908L140.778 159.194L163.685 145.892C163.394 145.777 163.102 145.659 162.809 145.54C162.543 145.428 162.273 145.315 162.005 145.199L161.492 144.974C161.091 144.794 160.688 144.609 160.285 144.415L160.106 144.329C159.631 144.098 159.154 143.859 158.677 143.608C116.116 121.319 150.661 69.8236 190.73 49.7116C197.177 46.4745 203.766 44.0513 210.203 42.693C210.203 42.693 200.702 44.1539 187.82 49.8436C171.977 56.8421 151.02 70.2378 136.34 95.1779C135.937 95.8616 135.547 96.5508 135.167 97.2437L135.072 97.4179C134.724 98.0576 134.388 98.701 134.059 99.3462L133.938 99.5863C133.615 100.228 133.301 100.871 132.999 101.518L132.904 101.72C132.586 102.402 132.28 103.087 131.984 103.775L131.952 103.848C131.647 104.557 131.355 105.271 131.073 105.984L131.018 106.13C130.754 106.803 130.501 107.481 130.26 108.159L130.178 108.385C129.952 109.025 129.734 109.666 129.525 110.309L129.414 110.654C129.213 111.285 129.021 111.917 128.836 112.549L128.749 112.845C128.553 113.525 128.369 114.207 128.194 114.888L128.126 115.167C127.962 115.812 127.806 116.457 127.662 117.105L127.575 117.504C127.443 118.1 127.32 118.697 127.204 119.295L127.113 119.775C127.003 120.356 126.902 120.939 126.807 121.522L126.727 122.006C126.636 122.602 126.55 123.196 126.47 123.791L126.398 124.365C126.324 124.954 126.256 125.546 126.197 126.134L126.138 126.743C126.09 127.272 126.045 127.8 126.007 128.328L125.959 129.032C125.929 129.525 125.904 130.02 125.881 130.513C125.872 130.75 125.862 130.988 125.853 131.224C125.836 131.732 125.826 132.238 125.818 132.746C125.813 133.044 125.811 133.343 125.811 133.64C125.809 134.087 125.813 134.531 125.82 134.975C125.824 135.316 125.832 135.653 125.843 135.992C125.855 136.401 125.868 136.81 125.887 137.216C125.902 137.557 125.919 137.898 125.938 138.239C125.963 138.648 125.99 139.057 126.02 139.466C126.043 139.779 126.067 140.091 126.094 140.4C126.13 140.807 126.17 141.211 126.212 141.616C126.256 142.043 126.303 142.468 126.354 142.893C126.387 143.176 126.423 143.458 126.461 143.74C126.522 144.2 126.586 144.66 126.655 145.119L126.774 145.892C126.847 146.341 126.923 146.788 127.002 147.236C127.063 147.568 127.124 147.899 127.187 148.229C127.27 148.656 127.356 149.082 127.447 149.509C127.508 149.796 127.571 150.086 127.635 150.374C127.746 150.867 127.862 151.36 127.981 151.853L128.133 152.464C128.259 152.96 128.39 153.453 128.527 153.946L128.665 154.443C128.81 154.949 128.956 155.453 129.11 155.954L129.293 156.535C129.443 157.015 129.597 157.492 129.758 157.966L129.76 157.974C129.867 158.285 129.973 158.597 130.083 158.908Z" fill="#53D269" fill-opacity="1.000000" fill-rule="evenodd"/>
	<path id="path16" d="M243.739 299.23C280.17 305.187 305.208 317.549 305.208 331.836C305.208 351.933 255.651 368.227 194.52 368.227C133.386 368.227 83.8295 351.933 83.8295 331.836C83.8295 312.574 129.333 296.812 186.919 295.529L187.632 306.133C139.788 307.114 102.065 318.244 102.065 331.836C102.065 346.071 143.458 357.608 194.52 357.608C245.58 357.608 286.974 346.071 286.974 331.836C286.974 321.53 265.283 312.642 233.937 308.516L243.739 299.23Z" fill="#53D269" fill-opacity="1.000000" fill-rule="evenodd"/>
	<path id="path18" d="M187.801 49.8527C188.772 49.7958 189.742 49.7519 190.713 49.7207C150.653 69.8381 116.122 121.322 158.677 143.608C191.112 160.597 219.708 133.206 233.778 103.351C240.006 90.1333 244.639 76.2775 248.61 63.3052C257.147 67.9464 265.182 73.7718 272.452 80.7831L272.513 80.8436L254.245 146.605C245.728 173.318 229.881 203.958 189.812 203.014C135.715 201.741 109.726 140.393 136.34 95.1778C151.014 70.2487 171.96 56.8548 187.801 49.8527ZM250.803 273.32C231.923 295.569 211.391 315.56 194.52 331.834C162.646 301.092 117.718 257.09 95.5425 209.639C102.77 223.911 112.653 236.702 124.389 247.392C151.727 272.301 189.103 285.829 226.329 280.214C231.05 279.503 235.557 278.493 239.856 277.232C243.666 276.114 247.315 274.799 250.803 273.32ZM84.5023 177.484C83.7572 173.946 83.1738 170.401 82.7689 166.854C83.2269 170.352 83.8029 173.895 84.5023 177.484Z" fill="#53D269" fill-opacity="1.000000" fill-rule="evenodd"/>
	<path id="path20" d="M194.52 321.344C212.144 321.344 226.43 326.04 226.43 331.836C226.43 337.63 212.144 342.326 194.52 342.326C176.896 342.326 162.608 337.63 162.608 331.836C162.608 326.04 176.896 321.344 194.52 321.344Z" fill="#53D269" fill-opacity="1.000000" fill-rule="evenodd"/>
	<path id="path22" d="M81.6077 139.345C81.6077 139.345 91.6635 22.2969 242.959 28.3514C242.959 28.3514 242.959 51.3595 236.053 76.4866C229.148 101.614 196.502 141.273 167.309 120.384C138.117 99.4947 167.091 56.4278 210.203 42.693C203.768 44.0513 197.177 46.4745 190.73 49.7116C190.724 49.7135 190.719 49.7171 190.713 49.7208C150.653 69.8382 116.122 121.322 158.677 143.608C159.154 143.859 159.631 144.099 160.106 144.329L160.285 144.415C160.69 144.609 161.091 144.794 161.492 144.974L162.003 145.203C162.564 145.447 163.121 145.678 163.677 145.894C193.115 157.396 218.835 133.204 232.531 105.91L233.006 104.952L233.025 104.913L233.046 104.873L233.065 104.832L233.086 104.792L233.124 104.713L233.145 104.673L233.164 104.633C233.371 104.207 233.576 103.778 233.778 103.351C240.006 90.1353 244.639 76.2776 248.61 63.2998C254.927 42.6545 259.564 24.2491 266.271 14.217C264.673 13.9805 263.078 13.7624 261.488 13.5626C260.956 13.4948 260.423 13.4434 259.891 13.3793C258.833 13.2546 257.774 13.1263 256.717 13.0182C256.1 12.954 255.482 12.9045 254.864 12.8459C253.897 12.7542 252.928 12.6589 251.964 12.5819C251.284 12.5287 250.609 12.4884 249.93 12.4389C249.037 12.3766 248.142 12.3088 247.251 12.2575C246.521 12.2153 245.791 12.186 245.063 12.153C244.227 12.1127 243.389 12.0687 242.554 12.0393C241.813 12.0118 241.074 11.999 240.335 11.9825C239.512 11.9624 238.691 11.9385 237.871 11.9275C237.145 11.9184 236.425 11.9202 235.701 11.9202C234.867 11.9184 234.032 11.9129 233.2 11.922C232.487 11.9294 231.778 11.9495 231.066 11.9642C230.241 11.9807 229.414 11.9953 228.593 12.0228C227.854 12.0485 227.118 12.0834 226.381 12.1163C225.594 12.1512 224.807 12.1842 224.022 12.2281C223.273 12.2703 222.528 12.3217 221.783 12.373C221.01 12.4243 220.234 12.4756 219.463 12.5361C218.712 12.5966 217.965 12.6662 217.218 12.7341C216.465 12.8037 215.713 12.8697 214.964 12.9485C214.211 13.0255 213.463 13.1117 212.714 13.1978C211.965 13.284 211.216 13.3701 210.469 13.4636C209.728 13.5571 208.992 13.6597 208.255 13.7624C207.514 13.865 206.775 13.9677 206.037 14.0795C205.292 14.1913 204.549 14.3123 203.806 14.4333C203.093 14.5487 202.379 14.6661 201.67 14.7907C200.906 14.9245 200.143 15.0657 199.383 15.2086C198.697 15.3369 198.013 15.4671 197.331 15.6027C196.567 15.7567 195.805 15.9162 195.042 16.0793C194.377 16.2205 193.712 16.3653 193.051 16.5137C192.275 16.686 191.502 16.8694 190.732 17.0527C190.088 17.2066 189.443 17.3625 188.803 17.5238C188.039 17.7162 187.277 17.9124 186.516 18.114C185.876 18.2826 185.237 18.4549 184.599 18.6327C183.833 18.8435 183.071 19.0617 182.311 19.2835C181.7 19.4613 181.092 19.6427 180.484 19.8279C179.707 20.0643 178.933 20.3045 178.162 20.5501C177.582 20.7334 177.004 20.924 176.426 21.1146C175.641 21.3767 174.857 21.6407 174.075 21.912C173.517 22.1063 172.962 22.3043 172.407 22.5041C171.618 22.7863 170.831 23.0741 170.048 23.3674C169.524 23.5654 169.001 23.7688 168.478 23.9723C167.674 24.2839 166.872 24.5992 166.074 24.9237C165.584 25.1235 165.095 25.3269 164.609 25.5304C163.801 25.8695 162.993 26.2086 162.193 26.5587C161.714 26.7695 161.237 26.984 160.76 27.1984C159.954 27.5595 159.15 27.9243 158.354 28.2982C157.921 28.5017 157.491 28.7107 157.062 28.9178C156.227 29.3174 155.393 29.7207 154.568 30.1349C154.188 30.3274 153.808 30.5254 153.428 30.7197C152.571 31.1596 151.717 31.6032 150.87 32.0578C150.528 32.2411 150.189 32.4299 149.849 32.6169C148.98 33.0916 148.114 33.57 147.257 34.0613C146.941 34.2409 146.631 34.4279 146.316 34.6112C145.447 35.1171 144.581 35.6267 143.725 36.1491C143.442 36.3214 143.167 36.4974 142.887 36.6715C141.996 37.2233 141.108 37.7787 140.232 38.3469C140.038 38.4715 139.848 38.6035 139.654 38.73C138.702 39.3569 137.756 39.9874 136.821 40.6327L136.547 40.827C135.525 41.5345 134.512 42.2549 133.514 42.9881L133.485 43.0101C115.219 56.4333 100.763 73.8947 91.7661 94.7655L91.7585 94.782C91.2416 95.9808 90.7437 97.1906 90.2647 98.4113L90.2134 98.5415C89.7402 99.7476 89.2859 100.963 88.8488 102.191L88.7937 102.345C88.3622 103.564 87.9498 104.792 87.5545 106.031L87.4918 106.226C87.1022 107.456 86.7316 108.693 86.3762 109.943L86.3096 110.176C85.96 111.422 85.6273 112.676 85.3137 113.941L85.2529 114.186C84.9432 115.449 84.6505 116.725 84.3768 118.008L84.3217 118.259C84.0499 119.544 83.7971 120.838 83.5634 122.142L83.5177 122.402C83.2839 123.709 83.0711 125.025 82.8754 126.35L82.8411 126.6C82.6492 127.929 82.4763 129.267 82.3223 130.612L82.2919 130.876C82.1398 132.231 82.0087 133.594 81.8965 134.967L81.8795 135.178C81.7692 136.558 81.678 137.946 81.6077 139.345Z" fill="#E3EDF6" fill-opacity="1.000000" fill-rule="evenodd"/>
	<path id="path24" d="M297.553 200.289C297.539 200.326 297.524 200.362 297.511 200.397C297.526 200.362 297.539 200.326 297.553 200.289ZM272.513 80.8436L254.245 146.605C248.258 165.384 238.647 186.105 219.546 196.429C213.411 199.744 206.299 201.986 198.011 202.749C198.011 202.749 241.074 201.521 256.14 169.732C271.207 137.944 272.462 117.964 286.588 117.66C300.696 117.359 310.286 166.488 297.555 200.289C313.375 160.534 311.873 118.846 272.513 80.8436Z" fill="#E3EDF6" fill-opacity="1.000000" fill-rule="evenodd"/>
	<path id="path26" d="M162.608 331.836C162.608 327.218 171.671 323.299 184.264 321.895C179.431 317.177 174.41 312.213 169.303 307.031C130.498 310.092 102.065 320.037 102.065 331.836C102.065 343.208 128.483 352.859 165.141 356.281C135.211 352.417 97.9563 336.554 116.137 325.794C136.855 313.535 160.87 314.29 160.87 314.29L163.067 320.042C156.946 320.495 130.893 333.515 166.049 340.931C201.206 348.349 220.251 338.04 220.251 338.04C214.443 340.64 205.079 342.326 194.52 342.326C176.894 342.326 162.608 337.63 162.608 331.836Z" fill="#E3EDF6" fill-opacity="1.000000" fill-rule="evenodd"/>
	<path id="path28" d="M194.934 280.559C205.258 281.86 215.8 281.803 226.329 280.214C231.05 279.503 235.557 278.493 239.856 277.232C243.666 276.114 247.315 274.799 250.803 273.32C247.608 273.764 244.453 274.107 241.34 274.358C150.467 281.675 95.5425 209.639 95.5425 209.639C102.77 223.913 112.653 236.7 124.389 247.392C143.993 265.255 168.761 277.267 194.934 280.559Z" fill="#E3EDF6" fill-opacity="1.000000" fill-rule="evenodd"/>
	<path id="GoPark" d="M158.408 397L162.041 397C160.967 391.375 156.25 387.508 150.117 387.508C142.656 387.508 137.383 393.25 137.383 402.459C137.383 411.658 142.617 417.4 150.342 417.4C157.275 417.4 162.217 412.781 162.217 405.584L162.217 402.459L151.133 402.459L151.133 405.584L158.809 405.584C158.711 410.809 155.273 414.1 150.342 414.1C144.941 414.1 140.791 410.008 140.791 402.459C140.791 394.9 144.941 390.809 150.117 390.809C154.316 390.809 157.178 393.182 158.408 397ZM176.65 417.459C182.558 417.459 186.532 412.967 186.532 406.209C186.532 399.383 182.558 394.9 176.65 394.9C170.741 394.9 166.757 399.383 166.757 406.209C166.757 412.967 170.741 417.459 176.65 417.459ZM176.65 414.441C172.157 414.441 170.116 410.584 170.116 406.209C170.116 401.834 172.157 397.908 176.65 397.908C181.132 397.908 183.183 401.834 183.183 406.209C183.183 410.584 181.132 414.441 176.65 414.441ZM192.105 417L195.621 417L195.621 406.375L201.988 406.375C208.765 406.375 211.822 402.254 211.822 397.117C211.822 391.971 208.765 387.908 201.929 387.908L192.105 387.908L192.105 417ZM195.621 403.25L195.621 391.033L201.822 391.033C206.548 391.033 208.355 393.621 208.355 397.117C208.355 400.604 206.548 403.25 201.871 403.25L195.621 403.25ZM223.469 417.508C227.268 417.508 229.26 415.467 229.944 414.041L230.11 414.041L230.11 417L233.469 417L233.469 402.625C233.469 395.691 228.186 394.9 225.393 394.9C222.102 394.9 218.352 396.033 216.643 400.008L219.827 401.15C220.569 399.559 222.317 397.85 225.51 397.85C228.596 397.85 230.11 399.49 230.11 402.283L230.11 402.4C230.11 404.021 228.469 403.875 224.485 404.383C220.442 404.91 216.018 405.809 216.018 410.809C216.018 415.066 219.319 417.508 223.469 417.508ZM223.977 414.5C221.311 414.5 219.378 413.309 219.378 410.975C219.378 408.416 221.702 407.625 224.319 407.283C225.735 407.117 229.544 406.717 230.11 406.033L230.11 409.1C230.11 411.834 227.952 414.5 223.977 414.5ZM239.6 417L242.95 417L242.95 403.191C242.95 400.242 245.284 398.084 248.468 398.084C249.356 398.084 250.284 398.25 250.509 398.309L250.509 394.9C250.128 394.871 249.249 394.842 248.751 394.842C246.134 394.842 243.868 396.316 243.067 398.475L242.843 398.475L242.843 395.184L239.6 395.184L239.6 417ZM254.487 417L257.836 417L257.836 408.836L260.18 406.658L268.354 417L272.612 417L262.71 404.5L271.928 395.184L267.788 395.184L258.237 404.9L257.836 404.9L257.836 387.908L254.487 387.908L254.487 417Z" fill="#09281F" fill-opacity="1.000000" fill-rule="evenodd"/>
	<path id="Find your spot" d="M130.41 436L131.816 436L131.816 430.797L136.863 430.797L136.863 429.547L131.816 429.547L131.816 425.613L137.387 425.613L137.387 424.363L130.41 424.363L130.41 436ZM142.973 436L144.313 436L144.313 427.273L142.973 427.273L142.973 436ZM143.657 425.816C144.18 425.816 144.61 425.41 144.61 424.91C144.61 424.41 144.18 424 143.657 424C143.133 424 142.699 424.41 142.699 424.91C142.699 425.41 143.133 425.816 143.657 425.816ZM151.468 430.75C151.468 429.227 152.414 428.363 153.699 428.363C154.941 428.363 155.699 429.176 155.699 430.547L155.699 436L157.039 436L157.039 430.453C157.039 428.227 155.851 427.16 154.085 427.16C152.765 427.16 151.949 427.75 151.539 428.637L151.425 428.637L151.425 427.273L150.128 427.273L150.128 436L151.468 436L151.468 430.75ZM166.149 436.184C167.829 436.184 168.399 435.137 168.692 434.66L168.852 434.66L168.852 436L170.149 436L170.149 424.363L168.809 424.363L168.809 428.66L168.692 428.66C168.399 428.203 167.875 427.16 166.172 427.16C163.965 427.16 162.442 428.91 162.442 431.66C162.442 434.434 163.965 436.184 166.149 436.184ZM166.329 434.977C164.649 434.977 163.786 433.5 163.786 431.637C163.786 429.797 164.625 428.363 166.329 428.363C167.965 428.363 168.829 429.684 168.829 431.637C168.829 433.613 167.942 434.977 166.329 434.977ZM184.867 439.273C186.078 439.273 186.93 438.629 187.437 437.273L191.141 427.273L189.687 427.273L187.277 434.227L187.187 434.227L184.777 427.273L183.324 427.273L186.551 436.047L186.301 436.727C185.812 438.059 185.211 438.184 184.23 437.934L183.891 439.113C184.027 439.184 184.414 439.273 184.867 439.273ZM199.502 436.184C201.865 436.184 203.455 434.387 203.455 431.684C203.455 428.953 201.865 427.16 199.502 427.16C197.138 427.16 195.545 428.953 195.545 431.684C195.545 434.387 197.138 436.184 199.502 436.184ZM199.502 434.977C197.705 434.977 196.888 433.434 196.888 431.684C196.888 429.934 197.705 428.363 199.502 428.363C201.295 428.363 202.115 429.934 202.115 431.684C202.115 433.434 201.295 434.977 199.502 434.977ZM214.36 432.434C214.36 434.066 213.11 434.816 212.11 434.816C210.997 434.816 210.2 434 210.2 432.727L210.2 427.273L208.86 427.273L208.86 432.816C208.86 435.047 210.044 436.113 211.681 436.113C212.997 436.113 213.86 435.41 214.27 434.523L214.36 434.523L214.36 436L215.7 436L215.7 427.273L214.36 427.273L214.36 432.434ZM221.516 436L222.855 436L222.855 430.477C222.855 429.297 223.789 428.434 225.063 428.434C225.418 428.434 225.789 428.5 225.879 428.523L225.879 427.16C225.727 427.148 225.375 427.137 225.176 427.137C224.129 427.137 223.223 427.727 222.902 428.59L222.813 428.59L222.813 427.273L221.516 427.273L221.516 436ZM244.874 429.227C244.452 427.988 243.511 427.16 241.78 427.16C239.94 427.16 238.577 428.203 238.577 429.684C238.577 430.887 239.292 431.691 240.897 432.066L242.35 432.41C243.229 432.613 243.647 433.035 243.647 433.637C243.647 434.387 242.85 435 241.6 435C240.503 435 239.815 434.527 239.577 433.59L238.303 433.91C238.616 435.391 239.839 436.184 241.624 436.184C243.651 436.184 245.03 435.074 245.03 433.566C245.03 432.352 244.272 431.586 242.714 431.203L241.417 430.887C240.386 430.629 239.917 430.285 239.917 429.613C239.917 428.863 240.714 428.316 241.78 428.316C242.952 428.316 243.436 428.965 243.667 429.566L244.874 429.227ZM250.414 439.273L251.754 439.273L251.754 434.66L251.871 434.66C252.164 435.137 252.734 436.184 254.414 436.184C256.597 436.184 258.121 434.434 258.121 431.66C258.121 428.91 256.597 427.16 254.39 427.16C252.687 427.16 252.164 428.203 251.871 428.66L251.711 428.66L251.711 427.273L250.414 427.273L250.414 439.273ZM251.734 431.637C251.734 429.684 252.597 428.363 254.234 428.363C255.937 428.363 256.777 429.797 256.777 431.637C256.777 433.5 255.914 434.977 254.234 434.977C252.621 434.977 251.734 433.613 251.734 431.637ZM267.071 436.184C269.434 436.184 271.024 434.387 271.024 431.684C271.024 428.953 269.434 427.16 267.071 427.16C264.707 427.16 263.114 428.953 263.114 431.684C263.114 434.387 264.707 436.184 267.071 436.184ZM267.071 434.977C265.274 434.977 264.457 433.434 264.457 431.684C264.457 429.934 265.274 428.363 267.071 428.363C268.864 428.363 269.684 429.934 269.684 431.684C269.684 433.434 268.864 434.977 267.071 434.977ZM280.226 427.273L278.363 427.273L278.363 425.184L277.019 425.184L277.019 427.273L275.703 427.273L275.703 428.41L277.019 428.41L277.019 433.863C277.019 435.387 278.25 436.113 279.386 436.113C279.886 436.113 280.203 436.023 280.386 435.953L280.113 434.75C280 434.773 279.816 434.816 279.519 434.816C278.929 434.816 278.363 434.637 278.363 433.5L278.363 428.41L280.226 428.41L280.226 427.273Z" fill="#53D269" fill-opacity="1.000000" fill-rule="evenodd"/>
</svg>
