<svg width="25.000000" height="23.000000" viewBox="0 0 25 23" fill="none" xmlns="http://www.w3.org/2000/svg" xmlns:xlink="http://www.w3.org/1999/xlink">
	<desc>
			Created with Pixso.
	</desc>
	<defs/>
	<path id="SF Symbol / scribble.variable" d="M0.628662 15.5056C1.35278 16.2146 2.74243 16.3799 3.81665 15.3875C4.20215 15.0449 4.96118 14.2297 6.15234 13.0127C11.9912 7.03418 15.5879 3.26514 16.2302 3.85596C16.7441 4.32861 14.7588 7.17603 12.7737 9.96436C9.14185 15.0566 6.08228 18.7786 8.38281 21.106C10.1812 22.9255 12.9138 21.2715 17.293 17.3843C19.6401 15.293 21.2751 13.7451 21.6838 14.147C21.9407 14.407 21.3218 15.4348 20.5276 16.8171C19.4067 18.7786 17.9119 20.9998 19.3716 22.4766C20.3877 23.5046 22.3262 23.0557 24.5798 20.7988C25.0471 20.3381 25.1521 19.7827 24.7551 19.3928C24.3931 19.0266 23.8792 19.0857 23.4939 19.4402C22.0342 20.8579 20.948 21.4724 20.7729 21.2715C20.551 21.0588 21.1699 19.9363 22.2444 17.9988C23.7275 15.3167 24.6382 13.5208 23.272 12.1738C21.4385 10.3779 19.2898 12.28 15.5647 15.6001C12.3999 18.4121 11.1038 19.1448 10.8118 18.8257C10.3914 18.3767 11.5591 16.7817 15.0159 11.8901C18.7527 6.62061 20.9714 3.19434 18.8694 1.11475C16.1252 -1.59082 12.4351 0.406006 3.29126 9.56274C1.95996 10.886 1.13086 11.6895 0.722168 12.1855C-0.340576 13.4263 -0.106934 14.7969 0.628662 15.5056Z" fill="#8D99A5" fill-opacity="1.000000" fill-rule="nonzero"/>
</svg>
