<svg width="25" height="24" viewBox="0 0 25 24" fill="none" xmlns="http://www.w3.org/2000/svg">
<path d="M12.7378 2C7.21779 2 2.73779 6.48 2.73779 12C2.73779 17.52 7.21779 22 12.7378 22C18.2578 22 22.7378 17.52 22.7378 12C22.7378 6.48 18.2578 2 12.7378 2ZM17.3778 8.8C17.2278 10.38 16.5778 14.22 16.2478 15.99C16.1078 16.74 15.8278 16.99 15.5678 17.02C14.9878 17.07 14.5478 16.64 13.9878 16.27C13.1078 15.69 12.6078 15.33 11.7578 14.77C10.7678 14.12 11.4078 13.76 11.9778 13.18C12.1278 13.03 14.6878 10.7 14.7378 10.49C14.7447 10.4582 14.7438 10.4252 14.7351 10.3938C14.7264 10.3624 14.7101 10.3337 14.6878 10.31C14.6278 10.26 14.5478 10.28 14.4778 10.29C14.3878 10.31 12.9878 11.24 10.2578 13.08C9.85779 13.35 9.49779 13.49 9.17779 13.48C8.81779 13.47 8.13779 13.28 7.62779 13.11C6.99779 12.91 6.50779 12.8 6.54779 12.45C6.56779 12.27 6.81779 12.09 7.28779 11.9C10.2078 10.63 12.1478 9.79 13.1178 9.39C15.8978 8.23 16.4678 8.03 16.8478 8.03C16.9278 8.03 17.1178 8.05 17.2378 8.15C17.3378 8.23 17.3678 8.34 17.3778 8.42C17.3678 8.48 17.3878 8.66 17.3778 8.8Z" fill="#53D269"/>
</svg>
